<?xml version="1.0" encoding="UTF-8"?>
<svg width="24px" height="24px" viewBox="0 0 24 24" version="1.1" xmlns="http://www.w3.org/2000/svg" xmlns:xlink="http://www.w3.org/1999/xlink">
    <g id="NY-Zodiac" stroke="none" stroke-width="1" fill="none" fill-rule="evenodd">
        <g id="切图" transform="translate(-417.000000, -93.000000)">
            <g id="编组-20" transform="translate(417.000000, 93.000000)">
                <rect id="矩形备份-13" x="0" y="0" width="24" height="24"></rect>
                <g id="编组" transform="translate(2.000000, 2.000000)" fill="#4B4B4B" fill-rule="nonzero">
                    <path d="M18.6744472,3.61797967 C16.9000267,1.81160875 14.0276114,1.81160875 12.2531908,3.61797967 L4.40033755,11.6313561 C3.72138145,12.324191 3.45621891,13.3340199 3.70473409,14.28045 C3.95324927,15.22688 4.6776868,15.9661261 5.60515808,16.2197213 C6.53262935,16.4733164 7.52222942,16.2027336 8.20118552,15.5098987 L14.521979,9.05989951 L13.3373534,7.85105861 L7.01656,14.3010578 C6.61426523,14.6910561 5.98307189,14.6910561 5.58077712,14.3010578 C5.18536209,13.8960229 5.18536209,13.2409604 5.58077712,12.8359255 L13.4378164,4.82682058 C14.1515134,4.03940596 15.2302019,3.71357503 16.2489283,3.97769014 C17.2676547,4.24180525 18.0631181,5.05352894 18.3219424,6.09307955 C18.5807668,7.13263016 18.2614629,8.23336851 17.4898217,8.96165449 L9.6369684,16.975031 C7.79443221,18.8552311 4.80709089,18.855231 2.96455474,16.9750309 C1.1220186,15.0948308 1.12201856,12.046424 2.96455467,10.1662239 L11.7550621,1.19602634 L10.5620647,0 L1.77155724,8.97019754 C-0.630673849,11.5344752 -0.584118144,15.5877211 1.87635166,18.0938389 C4.33682146,20.5999567 8.30895259,20.6399545 10.817408,18.1838719 L18.6744472,10.1662239 C20.4418509,8.35602536 20.4418509,5.42817819 18.6744472,3.61797967 L18.6744472,3.61797967 Z" id="路径"></path>
                </g>
            </g>
        </g>
    </g>
</svg>