<?xml version="1.0" encoding="UTF-8"?>
<svg width="18px" height="18px" viewBox="0 0 18 18" version="1.1" xmlns="http://www.w3.org/2000/svg" xmlns:xlink="http://www.w3.org/1999/xlink">
    <g id="NY-Zodiac" stroke="none" stroke-width="1" fill="none" fill-rule="evenodd">
        <g id="切图" transform="translate(-811.000000, -31.000000)">
            <g id="编组-19" transform="translate(811.000000, 31.000000)">
                <g id="编组-9" transform="translate(1.000000, 1.000000)" fill-rule="nonzero">
                    <path d="M14.6983368,4.79377829 L10.4444647,4.79377829 C10.2173448,4.79377829 10.0520373,4.57754829 10.1107998,4.35764646 L10.5817126,2.594556 C10.8755248,1.49443488 10.224868,0.363715178 9.12830802,0.0689488111 C8.95869319,0.0232121599 8.78382385,-2.84217094e-14 8.60818925,-2.84217094e-14 C7.71597614,-2.84217094e-14 6.89411529,0.599324281 6.65276229,1.50259451 L6.2501684,3.0096768 C5.969166,4.06186014 5.01859711,4.79377829 3.93261027,4.79377829 L0.650656784,4.79377829 C0.291372241,4.79377829 0,5.08609677 0,5.4465481 L0,14.5853254 C0,14.9457768 0.291372241,15.2380952 0.650656784,15.2380952 L13.234359,15.2380952 C13.8606161,15.2380952 14.398018,14.7905399 14.5133062,14.1730605 L15.977284,6.33982278 C16.127545,5.53650794 15.5132844,4.79377829 14.6983368,4.79377829 Z" id="路径" fill="#647EA6" transform="translate(8.000000, 7.619048) scale(-1, -1) translate(-8.000000, -7.619048) "></path>
                    <polygon id="路径" fill="#E5AC7F" transform="translate(13.746796, 5.222158) scale(-1, -1) translate(-13.746796, -5.222158) " points="12.7949053 1.30553962 14.6986864 1.30553962 14.1409516 9.13877733 12.7949053 9.13877733"></polygon>
                    <path d="M10.5836889,13.9325556 L1.30145992,13.9325556 L1.86265139,6.05056416 C3.28535312,5.82311468 4.47483505,4.77684707 4.85668925,3.34748518 L5.25928314,1.84040288 C5.34203855,1.53033722 5.63585075,1.30553962 5.95772253,1.30553962 C6.01892493,1.30553962 6.080534,1.31369924 6.14092308,1.33001849 C6.54270364,1.4379295 6.78182001,1.85386626 6.67425831,2.25674763 L6.20334546,4.01983808 C6.06975749,4.52002295 6.17345592,5.04244279 6.48760115,5.4530758 C6.80174637,5.86391279 7.27794581,6.0995219 7.79399797,6.0995219 L12.04787,6.0995219 L10.5836889,13.9325556 Z" id="路径" fill="#647EA6" transform="translate(6.674665, 7.619048) scale(-1, -1) translate(-6.674665, -7.619048) "></path>
                </g>
                <rect id="矩形" x="0" y="0" width="18" height="18"></rect>
            </g>
        </g>
    </g>
</svg>
