<?xml version="1.0" encoding="UTF-8"?>
<svg width="18px" height="18px" viewBox="0 0 18 18" version="1.1" xmlns="http://www.w3.org/2000/svg" xmlns:xlink="http://www.w3.org/1999/xlink">
    <g id="NY-Zodiac" stroke="none" stroke-width="1" fill="none" fill-rule="evenodd">
        <g id="切图" transform="translate(-777.000000, -31.000000)">
            <g id="编组-15" transform="translate(777.000000, 31.000000)">
                <rect id="矩形备份-6" x="0" y="0" width="18" height="18"></rect>
                <path d="M15.6983368,5.79377829 L11.4444647,5.79377829 C11.2173448,5.79377829 11.0520373,5.57754829 11.1107998,5.35764646 L11.5817126,3.594556 C11.8755248,2.49443488 11.224868,1.36371518 10.128308,1.06894881 C9.95869319,1.02321216 9.78382385,1 9.60818925,1 C8.71597614,1 7.89411529,1.59932428 7.65276229,2.50259451 L7.2501684,4.0096768 C6.969166,5.06186014 6.01859711,5.79377829 4.93261027,5.79377829 L1.65065678,5.79377829 C1.29137224,5.79377829 1,6.08609677 1,6.4465481 L1,15.5853254 C1,15.9457768 1.29137224,16.2380952 1.65065678,16.2380952 L14.234359,16.2380952 C14.8606161,16.2380952 15.398018,15.7905399 15.5133062,15.1730605 L16.977284,7.33982278 C17.127545,6.53650794 16.5132844,5.79377829 15.6983368,5.79377829 Z M2.30131357,7.09931791 L4.20509465,7.09931791 L3.64735979,14.9325556 L2.30131357,14.9325556 L2.30131357,7.09931791 Z M14.234359,14.9325556 L4.95212997,14.9325556 L5.51332145,7.05056416 C6.93602317,6.82311468 8.12550511,5.77684707 8.50735931,4.34748518 L8.90995319,2.84040288 C8.9927086,2.53033722 9.28652081,2.30553962 9.60839258,2.30553962 C9.66959499,2.30553962 9.73120405,2.31369924 9.79159314,2.33001849 C10.1933737,2.4379295 10.4324901,2.85386626 10.3249284,3.25674763 L9.85401552,5.01983808 C9.72042755,5.52002295 9.82412597,6.04244279 10.1382712,6.4530758 C10.4524164,6.86391279 10.9286159,7.0995219 11.444668,7.0995219 L15.6985401,7.0995219 L14.234359,14.9325556 Z" id="形状备份-2" fill="#647EA6" fill-rule="nonzero" transform="translate(9.000000, 8.619048) scale(-1, -1) translate(-9.000000, -8.619048) "></path>
            </g>
        </g>
    </g>
</svg>