<?xml version="1.0" encoding="UTF-8"?>
<svg width="24px" height="24px" viewBox="0 0 24 24" version="1.1" xmlns="http://www.w3.org/2000/svg" xmlns:xlink="http://www.w3.org/1999/xlink">
    <g id="NY-Zodiac" stroke="none" stroke-width="1" fill="none" fill-rule="evenodd">
        <g id="私域检索-文件管理切图" transform="translate(-25.000000, -142.000000)">
            <g id="编组-14" transform="translate(25.000000, 142.000000)">
                <rect id="矩形" x="0" y="0" width="24" height="24"></rect>
                <g id="编组" transform="translate(4.000000, 3.000000)" fill="#1B3B71" fill-rule="nonzero">
                    <path d="M15.6409392,13.2999555 C15.4317881,13.0382308 15.1952073,12.7262185 14.9346255,12.3627755 C14.6757361,12.002602 14.4427596,11.6244926 14.237455,11.2313021 C14.0169934,10.8179042 13.8308372,10.3871074 13.6808616,9.94325108 C13.5470191,9.55536537 13.4790299,9.14781655 13.4797107,8.73748903 C13.4797107,8.08946335 13.3768495,7.48601087 13.1734129,6.94998964 C12.9832067,6.43013667 12.7111993,5.94399576 12.3676667,5.50993258 C12.0252149,5.08361773 11.6133297,4.71809853 11.1493327,4.42874689 C10.8911758,4.26723823 10.6197034,4.12806085 10.337872,4.01273041 L9.89671165,3.81157958 L9.71956177,3.76929219 C10.0658612,3.36813344 10.2830127,2.85268445 10.2830127,2.28351904 C10.2830127,1.0223663 9.26064637,0 7.99949362,0 C6.73834088,0 5.71597458,1.0223663 5.71597458,2.28351904 C5.71597458,2.85954186 5.93769765,3.38070537 6.2897116,3.78300702 C6.22113745,3.80015056 6.16399233,3.81615119 6.14227719,3.82300861 C5.6561925,3.97761541 5.19271826,4.19590178 4.76393686,4.47217718 C3.8544724,5.05720724 3.15819707,5.92023591 2.77871535,6.9328461 C2.55852912,7.5146401 2.4495883,8.13261754 2.45755977,8.75463256 C2.45755977,9.17979226 2.39012853,9.58895133 2.25869475,9.96610913 C2.10326002,10.4106982 1.91582402,10.8381437 1.70210127,11.2415882 C1.49295013,11.6416041 1.26779835,12.0164761 1.01293111,12.3879194 C0.732920016,12.7936497 0.495196312,13.1605214 0.323760948,13.434818 C-0.137971631,14.0862724 -0.0396820226,14.7457271 0.209470706,15.1480287 C0.546626921,15.6817642 1.06436172,16.0006339 1.59581135,16.0006339 L14.0523049,16.0006339 C14.3837466,16.0006339 14.9586265,15.7743392 15.1037751,15.6977648 C15.3917865,15.554902 15.5906515,15.332036 15.7037989,15.1754584 C15.87752,14.9400205 15.9780954,14.653152 15.9975248,14.3514257 C16.0197312,13.9679262 15.8918476,13.5908335 15.6409392,13.2999555 L15.6409392,13.2999555 Z M8.00063653,1.14290228 C8.63215971,1.14321803 9.14385455,1.65542457 9.1435391,2.28694775 C9.14322335,2.91847093 8.63101681,3.43016578 7.99949362,3.42985032 C7.36797044,3.42953457 6.8562756,2.91732803 6.85659105,2.28580485 C6.8569068,1.65428166 7.36911334,1.14258682 8.00063653,1.14290228 Z M14.7894769,14.5194324 C14.7440739,14.5870604 14.6833868,14.6430491 14.612327,14.6828674 C14.518609,14.7331551 14.1951677,14.8440167 14.0865919,14.8577315 L1.54780944,14.8577315 C1.4346621,14.8577315 1.27922737,14.7354409 1.17179455,14.5628627 C1.13750747,14.5034318 1.09979169,14.3765696 1.26779835,14.1365601 C1.45066274,13.8371196 1.68152903,13.481677 1.951254,13.0850898 C2.2358367,12.6645018 2.48613233,12.2439137 2.72042733,11.7981817 C2.96272264,11.3364491 3.17530249,10.8438582 3.35130947,10.3341237 C3.52845934,9.81981762 3.61874863,9.27122446 3.61874863,8.70091615 C3.59825685,7.35783653 4.26784281,6.09804852 5.3925332,5.36364107 C5.75597617,5.13163188 6.12399075,4.95562491 6.45543245,4.85047788 L7.10802973,4.6710422 L7.11945876,4.6687564 L7.11717295,4.6698993 C7.39261244,4.60589677 7.68062385,4.57160969 7.97892138,4.57160969 C8.75838083,4.57160969 9.34583268,4.80019018 9.39726329,4.81847662 C9.84299523,4.95562491 10.2041524,5.11791705 10.536737,5.329354 C10.8887509,5.54993417 11.2019062,5.82994526 11.4613451,6.15681535 C11.7230697,6.48825706 11.9333638,6.86884356 12.0865127,7.28943166 C12.2419474,7.70087653 12.3196648,8.16946652 12.3196648,8.68377261 C12.3196648,9.23808029 12.4099541,9.78324474 12.585961,10.3021224 C12.7608251,10.8210001 12.9756908,11.3250201 13.2237006,11.7901814 C13.4717104,12.263343 13.7368638,12.6987888 14.0123033,13.0816611 C14.2865999,13.470248 14.5380384,13.8051184 14.7677618,14.0942727 C14.8329072,14.17199 14.8626227,14.2462787 14.8580511,14.3205674 C14.8549629,14.3921033 14.8311374,14.4611972 14.7894769,14.5194324 L14.7894769,14.5194324 Z M10.8578926,17.1435364 C11.1734964,17.1435364 11.4293438,17.3993838 11.4293438,17.7149876 C11.4293438,18.0305914 11.1734964,18.2864388 10.8578926,18.2864388 L5.14338047,18.2864388 C4.82777668,18.2864388 4.57192926,18.0305914 4.57192926,17.7149876 C4.57192926,17.3993838 4.82777668,17.1435364 5.14338047,17.1435364 L10.8578926,17.1435364 Z" id="形状"></path>
                </g>
            </g>
        </g>
    </g>
</svg>