<?xml version="1.0" encoding="UTF-8"?>
<svg width="24px" height="24px" viewBox="4 4 16 16" version="1.1" xmlns="http://www.w3.org/2000/svg" xmlns:xlink="http://www.w3.org/1999/xlink">
                <path d="M17.2228224,4 C18.1964889,4 19,4.78284024 19,5.75207101 L19,18.0072485 C19,18.9671598 18.1964889,19.75 17.2228224,19.75 L6.77717758,19.75 C5.80351114,19.75 5,18.9671598 5,17.997929 L5,5.75207101 C5,4.79215976 5.79405807,4 6.77717758,4 L17.2228224,4 Z M10.6056718,14.6428994 C10.3977043,14.4378698 10.0762998,14.4099112 9.83997299,14.5869822 L9.83997299,14.5869822 L9.15935179,15.1461538 L8.45037137,15.1461538 C8.03443619,15.1461538 7.86428089,15.4164201 7.86428089,15.733284 C7.86428089,15.9849112 8.04388926,16.1340237 8.45037137,16.2272189 L8.45037137,16.2272189 L9.33896016,16.2272189 C9.45239703,16.2272189 9.57528697,16.1899408 9.66036462,16.1060651 L9.66036462,16.1060651 L10.104659,15.8171598 L10.9932478,16.6652367 C11.1161377,16.7863905 11.2579338,16.8423077 11.409183,16.8423077 C11.5320729,16.8423077 11.6455098,16.8143491 11.7211344,16.7211538 L11.7211344,16.7211538 L12.458474,16.2272189 L13.762998,16.2272189 C14.0938555,16.2272189 14.3585415,15.9569527 14.3585415,15.6400888 C14.3585415,15.3139053 14.0844024,15.0529586 13.762998,15.0529586 L13.762998,15.0529586 L12.2883187,15.0529586 C12.1748818,15.0529586 12.0519919,15.1181953 11.9669142,15.1741124 L11.9669142,15.1741124 L11.4942606,15.4909763 Z M15.5652983,11.1752874 L8.43444814,11.1752874 C8.15284769,11.1752874 7.91666667,11.3994253 7.91666667,11.6752874 C7.91666667,11.9425287 8.14376381,12.1666667 8.43444814,12.1666667 L8.43444814,12.1666667 L15.5652983,12.1666667 C15.8559826,12.1666667 16.0921637,11.9511494 16.0830798,11.6752874 C16.0830798,11.3994253 15.8559826,11.1752874 15.5652983,11.1752874 L15.5652983,11.1752874 Z M15.5652983,8.66666667 L8.43444814,8.66666667 C8.15284769,8.66666667 7.91666667,8.88218391 7.91666667,9.15804598 C7.91666667,9.42528736 8.14376381,9.64942529 8.43444814,9.64942529 L8.43444814,9.64942529 L15.5652983,9.64942529 C15.8559826,9.64942529 16.0921637,9.42528736 16.0830798,9.15804598 C16.0830798,8.8908046 15.8559826,8.66666667 15.5652983,8.66666667 L15.5652983,8.66666667 Z"></path>
</svg>