<svg width="24px" height="24px" viewBox="4 4 16 16" version="1.1" xmlns="http://www.w3.org/2000/svg" xmlns:xlink="http://www.w3.org/1999/xlink">
                <path d="M12,4 C16.3349143,4 19.8645429,7.44661435 19.9961932,11.7480704 L20,11.9971613 L19.9934247,12.3280028 C19.9282441,13.9520315 19.3678843,15.5145756 18.3914879,16.8077737 L18.1906849,17.0627605 L18.019726,17.2632373 L18.8580822,18.6687657 L18.9128767,18.7750294 C19.0971354,19.2001359 18.9185784,19.6951686 18.505332,19.9049096 C18.1265228,20.0971722 17.6704776,19.9888211 17.4164042,19.6616649 L17.3523288,19.567077 L16.2986551,17.8002174 C15.8857313,18.1225106 15.4595678,18.427439 15.0201647,18.7150026 C14.2298299,19.2322304 13.2500465,19.4644275 12.0808145,19.4115939 C12.0134149,19.5123131 11.8951221,19.567077 11.6909602,19.567077 C7.27268216,19.567077 4,16.4138715 4,11.9971613 C4,7.58045108 7.581722,4 12,4 Z M12.1008219,8.74680822 L12.0350685,8.85526287 L10.6849315,11.457079 L10.6849315,11.4099725 C10.6845311,10.9686105 10.3558641,10.5964098 9.91780822,10.5412398 L9.80821918,10.5335712 C9.36628306,10.5334196 8.99332418,10.862108 8.93808219,11.3004223 L8.93150685,11.4099725 L8.93150685,15.0492286 C8.93150685,15.9267254 10.0591781,16.2400388 10.5271233,15.5531593 L10.5863014,15.4523732 L12.7715068,11.2445517 L14.7112329,15.4184126 C14.8961208,15.8160056 15.3464851,16.0158365 15.7654795,15.8861918 L15.8761644,15.8434673 C16.2737978,15.6590944 16.4741114,15.2094844 16.3452055,14.7906903 L16.3013699,14.6789491 L13.6087671,8.88922342 C13.4776967,8.60635658 13.20618,8.41438103 12.8957133,8.38505955 C12.5852467,8.35573808 12.2825678,8.49348476 12.1008219,8.74680822 Z M9.88712329,7.84959245 C9.5156299,7.83740361 9.16701663,8.02856575 8.9776606,8.34829645 C8.78830457,8.66802715 8.78830457,9.06550412 8.9776606,9.38523482 C9.16701663,9.70496552 9.5156299,9.89612766 9.88712329,9.88393882 C10.4360979,9.86592676 10.8718079,9.41584099 10.8718079,8.86676564 C10.8718079,8.31769028 10.4360979,7.86760451 9.88712329,7.84959245 Z"></path>
</svg>