<?xml version="1.0" encoding="UTF-8"?>
<svg width="20px" height="20px" viewBox="0 0 20 20" version="1.1" xmlns="http://www.w3.org/2000/svg" xmlns:xlink="http://www.w3.org/1999/xlink">
    <defs>
        <linearGradient x1="50%" y1="0%" x2="50%" y2="100%" id="linearGradient-1">
            <stop stop-color="#E88484" offset="0%"></stop>
            <stop stop-color="#2F51B6" offset="100%"></stop>
        </linearGradient>
    </defs>
    <g id="NY-Zodiac" stroke="none" stroke-width="1" fill="none" fill-rule="evenodd">
        <g id="切图" transform="translate(-634.000000, -30.000000)">
            <g id="编组-13" transform="translate(634.000000, 30.000000)">
                <rect id="矩形备份-3" x="0" y="0" width="20" height="20"></rect>
                <path d="M17.9615384,4.21428571 L2.03846152,4.21428571 C1.46493505,4.21428571 1,3.78256029 1,3.25 C1,2.71743971 1.46493505,2.2857143 2.03846152,2.28571429 L7.23076921,2.28571429 C7.23076921,1.57563389 7.85068263,1 8.61538459,1 L11.3846154,1 C12.1493173,1 12.7692307,1.57563389 12.7692307,2.28571429 L17.9615384,2.28571429 C18.5350649,2.28571429 19,2.71743971 19,3.25 C19,3.78256029 18.5350649,4.21428571 17.9615384,4.21428571 L17.9615384,4.21428571 Z M16.9230769,16.4285714 C16.9230769,17.8487322 15.6832501,19 14.1538461,19 L5.84615382,19 C4.3167499,19 3.07692306,17.8487322 3.07692306,16.4285714 L3.07692306,5.5 L16.9230769,5.5 L16.9230769,16.4285714 Z M8.61538459,9.03571429 C8.61538459,8.503154 8.15044951,8.0714286 7.57692306,8.0714286 C7.0033966,8.0714286 6.53846152,8.503154 6.53846152,9.03571429 L6.53846152,14.8214286 C6.53846152,15.3539889 7.00339658,15.7857143 7.57692306,15.7857143 C8.15044953,15.7857143 8.61538459,15.3539889 8.61538459,14.8214286 L8.61538459,9.03571429 L8.61538459,9.03571429 Z M13.4615384,9.03571429 C13.4615384,8.50315399 12.9966034,8.07142857 12.4230769,8.07142857 C11.8495504,8.07142857 11.3846154,8.50315399 11.3846154,9.03571429 L11.3846154,14.8214286 C11.3846154,15.3539889 11.8495504,15.7857143 12.4230769,15.7857143 C12.9966034,15.7857143 13.4615384,15.3539889 13.4615384,14.8214286 L13.4615384,9.03571429 Z" id="形状" fill="url(#linearGradient-1)" fill-rule="nonzero"></path>
            </g>
        </g>
    </g>
</svg>