<?xml version="1.0" encoding="UTF-8"?>
<svg width="35px" height="35px" viewBox="0 0 35 35" version="1.1" xmlns="http://www.w3.org/2000/svg" xmlns:xlink="http://www.w3.org/1999/xlink">
    <title>发送</title>
    <defs>
        <linearGradient x1="99.5708225%" y1="50%" x2="0.824879415%" y2="50%" id="linearGradient-1">
            <stop stop-color="#6DA7CE" offset="0%"></stop>
            <stop stop-color="#4E71EB" offset="100%"></stop>
        </linearGradient>
    </defs>
    <g id="NY-Zodiac" stroke="none" stroke-width="1" fill="none" fill-rule="evenodd">
        <g id="切图" transform="translate(-585.000000, -87.000000)">
            <g id="编组-32备份" transform="translate(585.000000, 87.000000)">
                <rect id="矩形" fill="url(#linearGradient-1)" x="0" y="0" width="35" height="35" rx="11"></rect>
                <g id="编组" transform="translate(7.000000, 9.000000)" fill="#FFFFFF" fill-rule="nonzero">
                    <path d="M19.5314573,0.0879736514 L0.776317895,7.32518738 C-0.280615868,7.73303167 -0.254139159,8.32574382 0.830209343,8.64749783 L5.36185184,9.99211061 L7.20436254,15.4745455 C7.44558423,16.1923008 8.07574836,16.3436566 8.61478013,15.8096669 L10.9917965,13.4549763 L15.6840111,16.8934525 C16.2936317,17.3401794 16.9203954,17.1050785 17.0849543,16.3635903 L20.5089844,0.934876146 C20.6730743,0.195498594 20.2360329,-0.183899102 19.5314573,0.0879736514 Z M16.6773679,3.57635456 L8.67737208,10.7041203 C8.53352083,10.8322825 8.40334179,11.0862618 8.38336116,11.2742956 L8.03018219,14.5947641 C7.99052577,14.9676188 7.86196489,14.983003 7.74339431,14.6256262 L6.19541048,9.95948961 C6.13485881,9.77694347 6.21780662,9.55319311 6.37950442,9.45622132 L16.5249804,3.37094323 C17.1715136,2.98317339 17.2403436,3.07475134 16.6773679,3.57635456 Z" id="形状"></path>
                </g>
            </g>
        </g>
    </g>
</svg>