<?xml version="1.0" encoding="UTF-8"?>
<svg width="20px" height="20px" viewBox="0 0 20 20" version="1.1" xmlns="http://www.w3.org/2000/svg" xmlns:xlink="http://www.w3.org/1999/xlink">
    <defs>
        <linearGradient x1="50%" y1="0%" x2="50%" y2="100%" id="linearGradient-1">
            <stop stop-color="#909399" offset="0%"></stop>
            <stop stop-color="#909399" offset="100%"></stop>
        </linearGradient>
    </defs>
    <g id="NY-Zodiac" stroke="none" stroke-width="1" fill="none" fill-rule="evenodd">
        <g id="切图" transform="translate(-597.000000, -30.000000)">
            <g id="编组-14" transform="translate(597.000000, 30.000000)">
                <rect id="矩形" x="0" y="0" width="20" height="20"></rect>
                <path d="M7.64340828,18.9999158 L1.37177284,18.9318684 C1.27102632,18.9310368 1.17495006,18.8889815 1.10563333,18.8153718 C1.03581279,18.743383 0.997800357,18.6460749 1.00009846,18.5454881 L1.11784746,12.4358913 C1.11382773,12.3187739 1.16362764,12.2063233 1.25284576,12.1310586 L9.32060148,4.00866019 C9.46909961,3.85980349 9.70759662,3.85980349 9.85352335,4.00866019 L16.009446,10.2062767 C16.1573012,10.3551334 16.1573012,10.5958929 16.009446,10.7421608 L7.91726198,18.8885058 C7.84500179,18.9618494 7.7459929,19.0020956 7.64340828,18.9999158 L7.64340828,18.9999158 Z M17.1620743,9.42769142 C17.0621982,9.42769142 16.9664457,9.38758677 16.8959348,9.3163725 L10.7374408,3.11810878 C10.6663023,3.04734344 10.6262649,2.95085043 10.6262649,2.85016671 C10.6262649,2.74948299 10.6663023,2.65298998 10.7374408,2.58222464 L11.631001,1.68261239 C12.5381406,0.772462537 14.0056058,0.772462537 14.9127455,1.68261239 L18.3198455,5.11278861 C18.7568736,5.55011643 19.0018077,6.14538905 18.99999,6.76574523 C18.99999,7.39029619 18.7589114,7.97601496 18.3198455,8.41870185 L17.4262853,9.31831411 C17.355514,9.38770182 17.2608571,9.42688764 17.1620743,9.42769142 L17.1620743,9.42769142 Z" id="形状" fill="url(#linearGradient-1)" fill-rule="nonzero"></path>
            </g>
        </g>
    </g>
</svg>