<?xml version="1.0" encoding="UTF-8"?>
<svg width="18px" height="18px" viewBox="0 0 18 18" version="1.1" xmlns="http://www.w3.org/2000/svg" xmlns:xlink="http://www.w3.org/1999/xlink">
    <g id="NY-Zodiac" stroke="none" stroke-width="1" fill="none" fill-rule="evenodd">
        <g id="切图" transform="translate(-707.000000, -31.000000)">
            <g id="编组-17" transform="translate(707.000000, 31.000000)">
                <rect id="矩形" x="0" y="0" width="18" height="18"></rect>
                <g id="编组-2" transform="translate(1.000000, 1.000000)" fill="#647EA6" fill-rule="nonzero" stroke="#647EA6" stroke-width="0.2">
                    <path d="M13.6327929,0 L4.7672071,0 C3.45671459,0 2.4,1.05463444 2.4,2.3672071 L2.4,11.2327929 C2.4,12.5432854 3.45463444,13.6 4.7672071,13.6 L13.6327929,13.6 C14.9432854,13.6 16,12.5453656 16,11.2327929 L16,2.3672071 C16,1.05671459 14.9453656,0 13.6327929,0 Z M14.7227898,11.1703885 C14.7227898,11.7881921 14.2173142,12.3227898 13.5703885,12.3227898 L4.8296115,12.3227898 C4.21180789,12.3227898 3.67721016,11.8173142 3.67721016,11.1703885 L3.67721016,2.4296115 C3.67721016,1.81180789 4.18268584,1.27721016 4.8296115,1.27721016 L13.5703885,1.27721016 C14.1881921,1.27721016 14.7227898,1.78268584 14.7227898,2.4296115 L14.7227898,11.1703885 L14.7227898,11.1703885 Z" id="形状"></path>
                    <path d="M0.593803731,3.2 C0.278215734,3.2 0.0332197891,3.44547375 0,3.73047294 L0,13.5806273 C0.0747445255,14.9369738 1.18345499,16 2.55584753,16 L12.2020438,16 C12.5155556,16 12.7709327,15.7441248 12.8,15.4300016 C12.8,15.0888347 12.5155556,14.8308792 12.2020438,14.8308792 L2.58699108,14.8329595 C1.81878345,14.8329595 1.19175994,14.2047131 1.19175994,13.4350073 L1.19175994,3.79912238 C1.19175994,3.45795547 0.907315491,3.2 0.593803731,3.2 Z" id="路径"></path>
                </g>
            </g>
        </g>
    </g>
</svg>