<svg width="16" height="16" viewBox="0 0 18 18" fill="none" xmlns="http://www.w3.org/2000/svg">
                          <path
                            d="M1.98633 6.16113C1.70508 5.87988 1.49121 5.56055 1.34473 5.20312C1.19824 4.8457 1.125 4.4707 1.125 4.07812C1.125 3.66211 1.20117 3.27832 1.35352 2.92676C1.50586 2.5752 1.71387 2.26758 1.97754 2.00391C2.24121 1.74023 2.55469 1.53516 2.91797 1.38867C3.28125 1.24219 3.66504 1.16602 4.06934 1.16016C4.45605 1.16016 4.83105 1.22754 5.19434 1.3623C5.55762 1.49707 5.87988 1.70508 6.16113 1.98633L9.26367 5.08887L8.46387 5.88867L6.75 4.1748L4.1748 6.75L5.88867 8.46387L5.08887 9.26367L1.98633 6.16113ZM4.07812 2.26758C3.82617 2.26758 3.58887 2.31152 3.36621 2.39941C3.14355 2.4873 2.9502 2.61621 2.78613 2.78613C2.62207 2.95605 2.49316 3.14648 2.39941 3.35742C2.30566 3.56836 2.25586 3.80859 2.25 4.07812C2.25 4.30078 2.2793 4.49414 2.33789 4.6582C2.39648 4.82227 2.48145 4.97754 2.59277 5.12402C2.7041 5.27051 2.82422 5.4082 2.95312 5.53711C3.08203 5.66602 3.22266 5.80371 3.375 5.9502L5.9502 3.375C5.79785 3.22852 5.66016 3.08789 5.53711 2.95312C5.41406 2.81836 5.2793 2.70117 5.13281 2.60156C4.98633 2.50195 4.83398 2.41992 4.67578 2.35547C4.51758 2.29102 4.31836 2.26172 4.07812 2.26758ZM18 18L12.4365 16.6113L9.86133 14.0361L10.6611 13.2363L12.5684 15.1523C12.6621 14.8477 12.791 14.5605 12.9551 14.291C13.1191 14.0215 13.3154 13.7725 13.5439 13.5439C13.7725 13.3154 14.0186 13.1221 14.2822 12.9639C14.5459 12.8057 14.8359 12.6738 15.1523 12.5684L13.2363 10.6611L14.0361 9.86133L16.6113 12.4365L18 18ZM16.4531 16.4531L15.7324 13.5615C15.457 13.6201 15.2021 13.7139 14.9678 13.8428C14.7334 13.9717 14.5195 14.1328 14.3262 14.3262C14.1328 14.5195 13.9717 14.7334 13.8428 14.9678C13.7139 15.2021 13.6201 15.457 13.5615 15.7324L16.4531 16.4531ZM15.1875 1.6875C15.498 1.6875 15.7881 1.74609 16.0576 1.86328C16.3271 1.98047 16.5674 2.1416 16.7783 2.34668C16.9893 2.55176 17.1504 2.78906 17.2617 3.05859C17.373 3.32812 17.4316 3.62109 17.4375 3.9375C17.4375 4.23633 17.3818 4.52344 17.2705 4.79883C17.1592 5.07422 16.9951 5.31738 16.7783 5.52832L6.70605 15.6006C6.65332 15.9463 6.54492 16.2627 6.38086 16.5498C6.2168 16.8369 6.01172 17.0918 5.76562 17.3145C5.51953 17.5371 5.24121 17.7041 4.93066 17.8154C4.62012 17.9268 4.28906 17.9883 3.9375 18H0V16.875C0.0644531 16.875 0.131836 16.8662 0.202148 16.8486C0.272461 16.8311 0.336914 16.8047 0.395508 16.7695C0.541992 16.6934 0.662109 16.5967 0.755859 16.4795C0.849609 16.3623 0.922852 16.2334 0.975586 16.0928C1.02832 15.9521 1.06641 15.8057 1.08984 15.6533C1.11328 15.501 1.125 15.3457 1.125 15.1875C1.125 14.8418 1.18359 14.5137 1.30078 14.2031C1.41797 13.8926 1.58789 13.6113 1.81055 13.3594C2.0332 13.1074 2.28516 12.9023 2.56641 12.7441C2.84766 12.5859 3.16699 12.4775 3.52441 12.4189L13.5967 2.34668C13.8076 2.13574 14.0508 1.97461 14.3262 1.86328C14.6016 1.75195 14.8887 1.69336 15.1875 1.6875ZM3.9375 16.875C4.17188 16.875 4.3916 16.8311 4.59668 16.7432C4.80176 16.6553 4.98047 16.5352 5.13281 16.3828C5.28516 16.2305 5.40527 16.0518 5.49316 15.8467C5.58105 15.6416 5.625 15.4219 5.625 15.1875C5.625 14.9531 5.58105 14.7334 5.49316 14.5283C5.40527 14.3232 5.28516 14.1445 5.13281 13.9922C4.98047 13.8398 4.80176 13.7197 4.59668 13.6318C4.3916 13.5439 4.17188 13.5 3.9375 13.5C3.70312 13.5 3.4834 13.5439 3.27832 13.6318C3.07324 13.7197 2.89453 13.8398 2.74219 13.9922C2.58984 14.1445 2.46973 14.3232 2.38184 14.5283C2.29395 14.7334 2.25 14.9531 2.25 15.1875C2.25 15.7969 2.0625 16.3594 1.6875 16.875H3.9375ZM8.49023 12.2256C8.30273 11.8564 8.08301 11.5459 7.83105 11.2939C7.5791 11.042 7.26855 10.8223 6.89941 10.6348L4.95703 12.5771C5.32031 12.7178 5.63965 12.9258 5.91504 13.2012C6.19043 13.4766 6.40137 13.7988 6.54785 14.168L8.49023 12.2256ZM15.9785 4.72852C16.1953 4.51172 16.3037 4.24805 16.3037 3.9375C16.3037 3.78516 16.2744 3.6416 16.2158 3.50684C16.1572 3.37207 16.0781 3.25488 15.9785 3.15527C15.8789 3.05566 15.7588 2.97363 15.6182 2.90918C15.4775 2.84473 15.334 2.81543 15.1875 2.82129C14.877 2.82129 14.6133 2.92969 14.3965 3.14648L7.72559 9.80859C8.08301 10.0195 8.38477 10.248 8.63086 10.4941C8.87695 10.7402 9.10547 11.042 9.31641 11.3994L15.9785 4.72852Z"
                            fill="currentColor"/>
                        </svg>