<?xml version="1.0" encoding="UTF-8"?>
<svg width="100px" height="74px" viewBox="0 0 100 74" version="1.1" xmlns="http://www.w3.org/2000/svg" xmlns:xlink="http://www.w3.org/1999/xlink">
    <g id="NY-Zodiac" stroke="none" stroke-width="1" fill="none" fill-rule="evenodd">
        <g transform="translate(-340.000000, -218.000000)" fill-rule="nonzero">
            <g transform="translate(340.000000, 218.000000)">
                <polygon fill="#D0D0D0" points="15.991284 6.25948571 36.5530549 6.25948571 36.5530549 7.50943151 15.991284 7.50943151"></polygon>
                <polygon fill="#D1D1D1" points="15.991284 7.50943151 36.5530549 7.50943151 36.5530549 8.7593773 15.991284 8.7593773"></polygon>
                <polygon fill="#D2D2D2" points="15.991284 8.7593773 36.5530549 8.7593773 36.5530549 10.0093231 15.991284 10.0093231"></polygon>
                <polygon fill="#D3D3D3" points="15.991284 10.0093231 36.5530549 10.0093231 36.5530549 11.2592689 15.991284 11.2592689"></polygon>
                <polygon fill="#D4D4D4" points="15.991284 11.2592689 36.5530549 11.2592689 36.5530549 12.5092147 15.991284 12.5092147"></polygon>
                <polygon fill="#D5D5D5" points="15.991284 12.5092147 36.5530549 12.5092147 36.5530549 13.7591605 15.991284 13.7591605"></polygon>
                <polygon fill="#D6D6D6" points="15.991284 13.7591605 36.5530549 13.7591605 36.5530549 15.0091063 15.991284 15.0091063"></polygon>
                <polygon fill="#D7D7D7" points="15.991284 15.0091063 36.5530549 15.0091063 36.5530549 16.2590521 15.991284 16.2590521"></polygon>
                <polygon fill="#D8D8D8" points="15.991284 16.2590521 36.5530549 16.2590521 36.5530549 17.5089979 15.991284 17.5089979"></polygon>
                <polygon fill="#D9D9D9" points="15.991284 17.5089979 36.5530549 17.5089979 36.5530549 18.7589437 15.991284 18.7589437"></polygon>
                <polygon fill="#DADADA" points="15.991284 18.7589437 36.5530549 18.7589437 36.5530549 20.0088895 15.991284 20.0088895"></polygon>
                <polygon fill="#DBDBDB" points="15.991284 20.0088895 36.5530549 20.0088895 36.5530549 21.2588353 15.991284 21.2588353"></polygon>
                <polygon fill="#DCDCDC" points="15.991284 21.2588353 36.5530549 21.2588353 36.5530549 22.5087811 15.991284 22.5087811"></polygon>
                <polygon fill="#DDDDDD" points="15.991284 22.5087811 36.5530549 22.5087811 36.5530549 23.7587269 15.991284 23.7587269"></polygon>
                <polygon fill="#DEDEDE" points="15.991284 23.7587269 36.5530549 23.7587269 36.5530549 25.0086727 15.991284 25.0086727"></polygon>
                <polygon fill="#DFDFDF" points="15.991284 25.0086727 36.5530549 25.0086727 36.5530549 26.2586184 15.991284 26.2586184"></polygon>
                <polygon fill="#E0E0E0" points="15.991284 26.2586184 36.5530549 26.2586184 36.5530549 27.5085642 15.991284 27.5085642"></polygon>
                <polygon fill="#E1E1E1" points="15.991284 27.5085642 36.5530549 27.5085642 36.5530549 28.75851 15.991284 28.75851"></polygon>
                <polygon fill="#E2E2E2" points="15.991284 28.75851 36.5530549 28.75851 36.5530549 30.0084558 15.991284 30.0084558"></polygon>
                <polygon fill="#E3E3E3" points="15.991284 30.0084558 36.5530549 30.0084558 36.5530549 31.2584016 15.991284 31.2584016"></polygon>
                <polygon fill="#E4E4E4" points="15.991284 31.2584016 36.5530549 31.2584016 36.5530549 32.5083474 15.991284 32.5083474"></polygon>
                <polygon fill="#E5E5E5" points="15.991284 32.5083474 36.5530549 32.5083474 36.5530549 33.7582932 15.991284 33.7582932"></polygon>
                <polygon fill="#E6E6E6" points="15.991284 33.7593773 36.5530549 33.7593773 36.5530549 35.0093231 15.991284 35.0093231"></polygon>
                <polygon fill="#E8E8E8" points="15.991284 35.0093231 36.5530549 35.0093231 36.5530549 36.2592689 15.991284 36.2592689"></polygon>
                <polygon fill="#E9E9E9" points="15.991284 36.2592689 36.5530549 36.2592689 36.5530549 37.5092147 15.991284 37.5092147"></polygon>
                <polygon fill="#EAEAEA" points="15.991284 37.5092147 36.5530549 37.5092147 36.5530549 38.7591605 15.991284 38.7591605"></polygon>
                <polygon fill="#EBEBEB" points="15.991284 38.7591605 36.5530549 38.7591605 36.5530549 40.0091063 15.991284 40.0091063"></polygon>
                <polygon fill="#ECECEC" points="15.991284 40.0091063 36.5530549 40.0091063 36.5530549 41.2590521 15.991284 41.2590521"></polygon>
                <polygon fill="#EDEDED" points="15.991284 41.2590521 36.5530549 41.2590521 36.5530549 42.5089979 15.991284 42.5089979"></polygon>
                <polygon fill="#EEEEEE" points="15.991284 42.5089979 36.5530549 42.5089979 36.5530549 43.7589437 15.991284 43.7589437"></polygon>
                <polygon fill="#EFEFEF" points="15.991284 43.7589437 36.5530549 43.7589437 36.5530549 45.0088895 15.991284 45.0088895"></polygon>
                <polygon fill="#F0F0F0" points="15.991284 45.0088895 36.5530549 45.0088895 36.5530549 46.2588353 15.991284 46.2588353"></polygon>
                <polygon fill="#F1F1F1" points="15.991284 46.2588353 36.5530549 46.2588353 36.5530549 47.5087811 15.991284 47.5087811"></polygon>
                <polygon fill="#F2F2F2" points="15.991284 47.5087811 36.5530549 47.5087811 36.5530549 48.7587269 15.991284 48.7587269"></polygon>
                <polygon fill="#F3F3F3" points="15.991284 48.7587269 36.5530549 48.7587269 36.5530549 50.0086727 15.991284 50.0086727"></polygon>
                <polygon fill="#F4F4F4" points="15.991284 50.0086727 36.5530549 50.0086727 36.5530549 51.2586184 15.991284 51.2586184"></polygon>
                <polygon fill="#F5F5F5" points="15.991284 51.2586184 36.5530549 51.2586184 36.5530549 52.5085642 15.991284 52.5085642"></polygon>
                <polygon fill="#F6F6F6" points="15.991284 52.5085642 36.5530549 52.5085642 36.5530549 53.75851 15.991284 53.75851"></polygon>
                <polygon fill="#F7F7F7" points="15.991284 53.75851 36.5530549 53.75851 36.5530549 55.0084558 15.991284 55.0084558"></polygon>
                <polygon fill="#F8F8F8" points="15.991284 55.0084558 36.5530549 55.0084558 36.5530549 56.2584016 15.991284 56.2584016"></polygon>
                <polygon fill="#F9F9F9" points="15.991284 56.2584016 36.5530549 56.2584016 36.5530549 57.5083474 15.991284 57.5083474"></polygon>
                <polygon fill="#FAFAFA" points="15.991284 57.5083474 36.5530549 57.5083474 36.5530549 58.7582932 15.991284 58.7582932"></polygon>
                <polygon fill="#FBFBFB" points="15.991284 58.7582932 36.5530549 58.7582932 36.5530549 60.008239 15.991284 60.008239"></polygon>
                <polygon fill="#FCFCFC" points="15.991284 60.008239 36.5530549 60.008239 36.5530549 61.2581848 15.991284 61.2581848"></polygon>
                <polygon fill="#FDFDFD" points="15.991284 61.2592689 36.5530549 61.2592689 36.5530549 62.5092147 15.991284 62.5092147"></polygon>
                <polygon fill="#FEFEFE" points="15.991284 62.5092147 36.5530549 62.5092147 36.5530549 63.7591605 15.991284 63.7591605"></polygon>
                <path d="M15.991284,63.7591605 L36.5530549,63.7591605 L36.5530549,65.0091063 L15.991284,65.0091063 L15.991284,63.7591605 Z M15.991284,65.0091063 L36.5530549,65.0091063 L15.991284,65.0091063 Z" id="形状" fill="#FFFFFF"></path>
                <polygon fill="#BEBEBE" points="5.95269069 6.08061229 15.991284 6.08061229 15.991284 6.9869043 5.95269069 6.9869043"></polygon>
                <polygon fill="#BFBFBF" points="5.95269069 6.9869043 15.991284 6.9869043 15.991284 7.89319631 5.95269069 7.89319631"></polygon>
                <polygon fill="#C0C0C0" points="5.95269069 7.89319631 15.991284 7.89319631 15.991284 8.79948831 5.95269069 8.79948831"></polygon>
                <polygon fill="#C1C1C1" points="5.95269069 8.80057239 15.991284 8.80057239 15.991284 9.7068644 5.95269069 9.7068644"></polygon>
                <polygon fill="#C2C2C2" points="5.95269069 9.7068644 15.991284 9.7068644 15.991284 10.6131564 5.95269069 10.6131564"></polygon>
                <polygon fill="#C3C3C3" points="5.95269069 10.6131564 15.991284 10.6131564 15.991284 11.5194484 5.95269069 11.5194484"></polygon>
                <polygon fill="#C4C4C4" points="5.95269069 11.5194484 15.991284 11.5194484 15.991284 12.4257404 5.95269069 12.4257404"></polygon>
                <polygon fill="#C5C5C5" points="5.95269069 12.4268245 15.991284 12.4268245 15.991284 13.3331165 5.95269069 13.3331165"></polygon>
                <polygon fill="#C6C6C6" points="5.95269069 13.3331165 15.991284 13.3331165 15.991284 14.2394085 5.95269069 14.2394085"></polygon>
                <polygon fill="#C7C7C7" points="5.95269069 14.2394085 15.991284 14.2394085 15.991284 15.1457005 5.95269069 15.1457005"></polygon>
                <polygon fill="#C8C8C8" points="5.95269069 15.1457005 15.991284 15.1457005 15.991284 16.0519925 5.95269069 16.0519925"></polygon>
                <polygon fill="#C9C9C9" points="5.95269069 16.0530766 15.991284 16.0530766 15.991284 16.9593686 5.95269069 16.9593686"></polygon>
                <polygon fill="#CACACA" points="5.95269069 16.9593686 15.991284 16.9593686 15.991284 17.8656606 5.95269069 17.8656606"></polygon>
                <polygon fill="#CBCBCB" points="5.95269069 17.8656606 15.991284 17.8656606 15.991284 18.7719526 5.95269069 18.7719526"></polygon>
                <polygon fill="#CCCCCC" points="5.95269069 18.7719526 15.991284 18.7719526 15.991284 19.6782447 5.95269069 19.6782447"></polygon>
                <polygon fill="#CDCDCD" points="5.95269069 19.6793287 15.991284 19.6793287 15.991284 20.5856207 5.95269069 20.5856207"></polygon>
                <polygon fill="#CECECE" points="5.95269069 20.5856207 15.991284 20.5856207 15.991284 21.4919128 5.95269069 21.4919128"></polygon>
                <polygon fill="#CFCFCF" points="5.95269069 21.4919128 15.991284 21.4919128 15.991284 22.3982048 5.95269069 22.3982048"></polygon>
                <polygon fill="#D0D0D0" points="5.95269069 22.3992888 15.991284 22.3992888 15.991284 23.3055809 5.95269069 23.3055809"></polygon>
                <polygon fill="#D1D1D1" points="5.95269069 23.3055809 15.991284 23.3055809 15.991284 24.2118729 5.95269069 24.2118729"></polygon>
                <polygon fill="#D2D2D2" points="5.95269069 24.2118729 15.991284 24.2118729 15.991284 25.1181649 5.95269069 25.1181649"></polygon>
                <polygon fill="#D3D3D3" points="5.95269069 25.1181649 15.991284 25.1181649 15.991284 26.0244569 5.95269069 26.0244569"></polygon>
                <polygon fill="#D4D4D4" points="5.95269069 26.025541 15.991284 26.025541 15.991284 26.931833 5.95269069 26.931833"></polygon>
                <polygon fill="#D5D5D5" points="5.95269069 26.931833 15.991284 26.931833 15.991284 27.838125 5.95269069 27.838125"></polygon>
                <polygon fill="#D6D6D6" points="5.95269069 27.838125 15.991284 27.838125 15.991284 28.744417 5.95269069 28.744417"></polygon>
                <polygon fill="#D7D7D7" points="5.95269069 28.744417 15.991284 28.744417 15.991284 29.650709 5.95269069 29.650709"></polygon>
                <polygon fill="#D8D8D8" points="5.95269069 29.6517931 15.991284 29.6517931 15.991284 30.5580851 5.95269069 30.5580851"></polygon>
                <polygon fill="#D9D9D9" points="5.95269069 30.5580851 15.991284 30.5580851 15.991284 31.4643771 5.95269069 31.4643771"></polygon>
                <polygon fill="#DADADA" points="5.95269069 31.4643771 15.991284 31.4643771 15.991284 32.3706691 5.95269069 32.3706691"></polygon>
                <polygon fill="#DBDBDB" points="5.95269069 32.3706691 15.991284 32.3706691 15.991284 33.2769611 5.95269069 33.2769611"></polygon>
                <polygon fill="#DCDCDC" points="5.95269069 33.2780452 15.991284 33.2780452 15.991284 34.1843372 5.95269069 34.1843372"></polygon>
                <polygon fill="#DDDDDD" points="5.95269069 34.1843372 15.991284 34.1843372 15.991284 35.0906292 5.95269069 35.0906292"></polygon>
                <polygon fill="#DFDFDF" points="5.95269069 35.0906292 15.991284 35.0906292 15.991284 35.9969212 5.95269069 35.9969212"></polygon>
                <polygon fill="#E0E0E0" points="5.95269069 35.9980053 15.991284 35.9980053 15.991284 36.9042973 5.95269069 36.9042973"></polygon>
                <polygon fill="#E1E1E1" points="5.95269069 36.9042973 15.991284 36.9042973 15.991284 37.8105893 5.95269069 37.8105893"></polygon>
                <polygon fill="#E2E2E2" points="5.95269069 37.8105893 15.991284 37.8105893 15.991284 38.7168813 5.95269069 38.7168813"></polygon>
                <polygon fill="#E3E3E3" points="5.95269069 38.7168813 15.991284 38.7168813 15.991284 39.6231733 5.95269069 39.6231733"></polygon>
                <polygon fill="#E4E4E4" points="5.95269069 39.6242574 15.991284 39.6242574 15.991284 40.5305494 5.95269069 40.5305494"></polygon>
                <polygon fill="#E5E5E5" points="5.95269069 40.5305494 15.991284 40.5305494 15.991284 41.4368414 5.95269069 41.4368414"></polygon>
                <polygon fill="#E6E6E6" points="5.95269069 41.4368414 15.991284 41.4368414 15.991284 42.3431334 5.95269069 42.3431334"></polygon>
                <polygon fill="#E7E7E7" points="5.95269069 42.3431334 15.991284 42.3431334 15.991284 43.2494254 5.95269069 43.2494254"></polygon>
                <polygon fill="#E8E8E8" points="5.95269069 43.2505095 15.991284 43.2505095 15.991284 44.1568015 5.95269069 44.1568015"></polygon>
                <polygon fill="#E9E9E9" points="5.95269069 44.1568015 15.991284 44.1568015 15.991284 45.0630935 5.95269069 45.0630935"></polygon>
                <polygon fill="#EAEAEA" points="5.95269069 45.0630935 15.991284 45.0630935 15.991284 45.9693855 5.95269069 45.9693855"></polygon>
                <polygon fill="#EBEBEB" points="5.95269069 45.9704696 15.991284 45.9704696 15.991284 46.8767616 5.95269069 46.8767616"></polygon>
                <polygon fill="#ECECEC" points="5.95269069 46.8767616 15.991284 46.8767616 15.991284 47.7830536 5.95269069 47.7830536"></polygon>
                <polygon fill="#EDEDED" points="5.95269069 47.7830536 15.991284 47.7830536 15.991284 48.6893456 5.95269069 48.6893456"></polygon>
                <polygon fill="#EEEEEE" points="5.95269069 48.6893456 15.991284 48.6893456 15.991284 49.5956377 5.95269069 49.5956377"></polygon>
                <polygon fill="#EFEFEF" points="5.95269069 49.5967217 15.991284 49.5967217 15.991284 50.5030137 5.95269069 50.5030137"></polygon>
                <polygon fill="#F0F0F0" points="5.95269069 50.5030137 15.991284 50.5030137 15.991284 51.4093058 5.95269069 51.4093058"></polygon>
                <polygon fill="#F1F1F1" points="5.95269069 51.4093058 15.991284 51.4093058 15.991284 52.3155978 5.95269069 52.3155978"></polygon>
                <polygon fill="#F2F2F2" points="5.95269069 52.3155978 15.991284 52.3155978 15.991284 53.2218898 5.95269069 53.2218898"></polygon>
                <polygon fill="#F3F3F3" points="5.95269069 53.2229739 15.991284 53.2229739 15.991284 54.1292659 5.95269069 54.1292659"></polygon>
                <polygon fill="#F4F4F4" points="5.95269069 54.1292659 15.991284 54.1292659 15.991284 55.0355579 5.95269069 55.0355579"></polygon>
                <polygon fill="#F5F5F5" points="5.95269069 55.0355579 15.991284 55.0355579 15.991284 55.9418499 5.95269069 55.9418499"></polygon>
                <polygon fill="#F6F6F6" points="5.95269069 55.9418499 15.991284 55.9418499 15.991284 56.8481419 5.95269069 56.8481419"></polygon>
                <polygon fill="#F7F7F7" points="5.95269069 56.849226 15.991284 56.849226 15.991284 57.755518 5.95269069 57.755518"></polygon>
                <polygon fill="#F8F8F8" points="5.95269069 57.755518 15.991284 57.755518 15.991284 58.66181 5.95269069 58.66181"></polygon>
                <polygon fill="#F9F9F9" points="5.95269069 58.66181 15.991284 58.66181 15.991284 59.568102 5.95269069 59.568102"></polygon>
                <polygon fill="#FAFAFA" points="5.95269069 59.5691861 15.991284 59.5691861 15.991284 60.4754781 5.95269069 60.4754781"></polygon>
                <polygon fill="#FBFBFB" points="5.95269069 60.4754781 15.991284 60.4754781 15.991284 61.3817701 5.95269069 61.3817701"></polygon>
                <polygon fill="#FCFCFC" points="5.95269069 61.3817701 15.991284 61.3817701 15.991284 62.2880621 5.95269069 62.2880621"></polygon>
                <polygon fill="#FDFDFD" points="5.95269069 62.2880621 15.991284 62.2880621 15.991284 63.1943541 5.95269069 63.1943541"></polygon>
                <polygon fill="#FEFEFE" points="5.95269069 63.1954382 15.991284 63.1954382 15.991284 64.1017302 5.95269069 64.1017302"></polygon>
                <path d="M5.95269069,64.1017302 L15.991284,64.1017302 L15.991284,65.1017302 L5.95269069,65.1017302 L5.95269069,64.1017302 Z M5.95269069,65.1017302 L15.991284,65.1017302 L5.95269069,65.1017302 Z" id="形状" fill="#FFFFFF"></path>
                <polygon fill="#F1F1F1" points="5.94943845 0 36.5552231 0 36.5552231 0.882442218 5.94943845 0.882442218"></polygon>
                <polygon fill="#F2F2F2" points="5.94943845 0.882442218 36.5552231 0.882442218 36.5552231 1.76488444 5.94943845 1.76488444"></polygon>
                <polygon fill="#F3F3F3" points="5.94943845 1.76488444 36.5552231 1.76488444 36.5552231 2.64732666 5.94943845 2.64732666"></polygon>
                <polygon fill="#F4F4F4" points="5.94943845 2.64732666 36.5552231 2.64732666 36.5552231 3.52976887 5.94943845 3.52976887"></polygon>
                <polygon fill="#F5F5F5" points="5.94943845 3.52868479 36.5552231 3.52868479 36.5552231 4.41112701 5.94943845 4.41112701"></polygon>
                <polygon fill="#F6F6F6" points="5.94943845 4.41112701 36.5552231 4.41112701 36.5552231 5.29356923 5.94943845 5.29356923"></polygon>
                <polygon fill="#F7F7F7" points="5.94943845 5.29356923 36.5552231 5.29356923 36.5552231 6.17601145 5.94943845 6.17601145"></polygon>
                <polygon fill="#F9F9F9" points="5.94943845 6.17601145 36.5552231 6.17601145 36.5552231 7.05845367 5.94943845 7.05845367"></polygon>
                <polygon fill="#FAFAFA" points="5.94943845 7.05845367 36.5552231 7.05845367 36.5552231 7.94089588 5.94943845 7.94089588"></polygon>
                <polygon fill="#FBFBFB" points="5.94943845 7.94089588 36.5552231 7.94089588 36.5552231 8.8233381 5.94943845 8.8233381"></polygon>
                <polygon fill="#FCFCFC" points="5.94943845 8.8233381 36.5552231 8.8233381 36.5552231 9.70578032 5.94943845 9.70578032"></polygon>
                <polygon fill="#FDFDFD" points="5.94943845 9.70578032 36.5552231 9.70578032 36.5552231 10.5882225 5.94943845 10.5882225"></polygon>
                <polygon fill="#FEFEFE" points="5.94943845 10.5871385 36.5552231 10.5871385 36.5552231 11.4695807 5.94943845 11.4695807"></polygon>
                <path d="M5.94943845,11.4695807 L36.5552231,11.4695807 L36.5552231,12.4695807 L5.94943845,12.4695807 L5.94943845,11.4695807 Z M5.94943845,12.4695807 L36.5552231,12.4695807 L5.94943845,12.4695807 Z" id="形状" fill="#FFFFFF"></path>
                <path d="M90.9544252,7.649278 L70.8750705,7.649278 L90.9544252,7.649278 L90.9544252,7.649278 Z M70.8750705,7.649278 L90.9544252,7.649278 L90.9544252,11.7460214 L70.8750705,11.7460214 L70.8750705,7.649278 Z" id="形状" fill="#F1F1F1"></path>
                <polygon fill="#F2F2F2" points="70.8750705 11.7471055 90.9544252 11.7471055 90.9544252 15.8438489 70.8750705 15.8438489"></polygon>
                <polygon fill="#F3F3F3" points="70.8750705 15.8438489 90.9544252 15.8438489 90.9544252 19.9405923 70.8750705 19.9405923"></polygon>
                <polygon fill="#F4F4F4" points="70.8750705 19.9405923 90.9544252 19.9405923 90.9544252 24.0373358 70.8750705 24.0373358"></polygon>
                <polygon fill="#F5F5F5" points="70.8750705 24.0384198 90.9544252 24.0384198 90.9544252 28.1351633 70.8750705 28.1351633"></polygon>
                <polygon fill="#F6F6F6" points="70.8750705 28.1351633 90.9544252 28.1351633 90.9544252 32.2319067 70.8750705 32.2319067"></polygon>
                <polygon fill="#F7F7F7" points="70.8750705 32.2319067 90.9544252 32.2319067 90.9544252 36.3286501 70.8750705 36.3286501"></polygon>
                <polygon fill="#F9F9F9" points="70.8750705 36.3297342 90.9544252 36.3297342 90.9544252 40.4264776 70.8750705 40.4264776"></polygon>
                <polygon fill="#FAFAFA" points="70.8750705 40.4264776 90.9544252 40.4264776 90.9544252 44.523221 70.8750705 44.523221"></polygon>
                <polygon fill="#FBFBFB" points="70.8750705 44.523221 90.9544252 44.523221 90.9544252 48.6199644 70.8750705 48.6199644"></polygon>
                <polygon fill="#FCFCFC" points="70.8750705 48.6210485 90.9544252 48.6210485 90.9544252 52.7177919 70.8750705 52.7177919"></polygon>
                <polygon fill="#FDFDFD" points="70.8750705 52.7177919 90.9544252 52.7177919 90.9544252 56.8145354 70.8750705 56.8145354"></polygon>
                <polygon fill="#FEFEFE" points="70.8750705 56.8145354 90.9544252 56.8145354 90.9544252 60.9112788 70.8750705 60.9112788"></polygon>
                <polygon fill="#FFFFFF" points="70.8750705 60.9123629 90.9544252 60.9123629 90.9544252 65.0091063 70.8750705 65.0091063"></polygon>
                <polygon fill="#DEDEDE" points="61.0728069 7.4747409 70.8750705 7.4747409 70.8750705 9.21794371 61.0728069 9.21794371"></polygon>
                <polygon fill="#DFDFDF" points="61.0728069 9.21794371 70.8750705 9.21794371 70.8750705 10.9611465 61.0728069 10.9611465"></polygon>
                <polygon fill="#E0E0E0" points="61.0728069 10.9611465 70.8750705 10.9611465 70.8750705 12.7043493 61.0728069 12.7043493"></polygon>
                <polygon fill="#E1E1E1" points="61.0728069 12.7054334 70.8750705 12.7054334 70.8750705 14.4486362 61.0728069 14.4486362"></polygon>
                <polygon fill="#E2E2E2" points="61.0728069 14.4486362 70.8750705 14.4486362 70.8750705 16.191839 61.0728069 16.191839"></polygon>
                <polygon fill="#E3E3E3" points="61.0728069 16.191839 70.8750705 16.191839 70.8750705 17.9350418 61.0728069 17.9350418"></polygon>
                <polygon fill="#E4E4E4" points="61.0728069 17.9350418 70.8750705 17.9350418 70.8750705 19.6782447 61.0728069 19.6782447"></polygon>
                <polygon fill="#E5E5E5" points="61.0728069 19.6793287 70.8750705 19.6793287 70.8750705 21.4225315 61.0728069 21.4225315"></polygon>
                <polygon fill="#E6E6E6" points="61.0728069 21.4225315 70.8750705 21.4225315 70.8750705 23.1657344 61.0728069 23.1657344"></polygon>
                <polygon fill="#E7E7E7" points="61.0728069 23.1657344 70.8750705 23.1657344 70.8750705 24.9089372 61.0728069 24.9089372"></polygon>
                <polygon fill="#E8E8E8" points="61.0728069 24.9089372 70.8750705 24.9089372 70.8750705 26.65214 61.0728069 26.65214"></polygon>
                <polygon fill="#E9E9E9" points="61.0728069 26.6532241 70.8750705 26.6532241 70.8750705 28.3964269 61.0728069 28.3964269"></polygon>
                <polygon fill="#EAEAEA" points="61.0728069 28.3964269 70.8750705 28.3964269 70.8750705 30.1396297 61.0728069 30.1396297"></polygon>
                <polygon fill="#EBEBEB" points="61.0728069 30.1396297 70.8750705 30.1396297 70.8750705 31.8828325 61.0728069 31.8828325"></polygon>
                <polygon fill="#ECECEC" points="61.0728069 31.8828325 70.8750705 31.8828325 70.8750705 33.6260353 61.0728069 33.6260353"></polygon>
                <polygon fill="#EDEDED" points="61.0728069 33.6260353 70.8750705 33.6260353 70.8750705 35.3692381 61.0728069 35.3692381"></polygon>
                <polygon fill="#EFEFEF" points="61.0728069 35.3703222 70.8750705 35.3703222 70.8750705 37.113525 61.0728069 37.113525"></polygon>
                <polygon fill="#F0F0F0" points="61.0728069 37.113525 70.8750705 37.113525 70.8750705 38.8567278 61.0728069 38.8567278"></polygon>
                <polygon fill="#F1F1F1" points="61.0728069 38.8567278 70.8750705 38.8567278 70.8750705 40.5999306 61.0728069 40.5999306"></polygon>
                <polygon fill="#F2F2F2" points="61.0728069 40.5999306 70.8750705 40.5999306 70.8750705 42.3431334 61.0728069 42.3431334"></polygon>
                <polygon fill="#F3F3F3" points="61.0728069 42.3442175 70.8750705 42.3442175 70.8750705 44.0874203 61.0728069 44.0874203"></polygon>
                <polygon fill="#F4F4F4" points="61.0728069 44.0874203 70.8750705 44.0874203 70.8750705 45.8306231 61.0728069 45.8306231"></polygon>
                <polygon fill="#F5F5F5" points="61.0728069 45.8306231 70.8750705 45.8306231 70.8750705 47.5738259 61.0728069 47.5738259"></polygon>
                <polygon fill="#F6F6F6" points="61.0728069 47.5738259 70.8750705 47.5738259 70.8750705 49.3170287 61.0728069 49.3170287"></polygon>
                <polygon fill="#F7F7F7" points="61.0728069 49.3181128 70.8750705 49.3181128 70.8750705 51.0613156 61.0728069 51.0613156"></polygon>
                <polygon fill="#F8F8F8" points="61.0728069 51.0613156 70.8750705 51.0613156 70.8750705 52.8045185 61.0728069 52.8045185"></polygon>
                <polygon fill="#F9F9F9" points="61.0728069 52.8045185 70.8750705 52.8045185 70.8750705 54.5477213 61.0728069 54.5477213"></polygon>
                <polygon fill="#FAFAFA" points="61.0728069 54.5477213 70.8750705 54.5477213 70.8750705 56.2909241 61.0728069 56.2909241"></polygon>
                <polygon fill="#FBFBFB" points="61.0728069 56.2909241 70.8750705 56.2909241 70.8750705 58.0341269 61.0728069 58.0341269"></polygon>
                <polygon fill="#FCFCFC" points="61.0728069 58.035211 70.8750705 58.035211 70.8750705 59.7784138 61.0728069 59.7784138"></polygon>
                <polygon fill="#FDFDFD" points="61.0728069 59.7784138 70.8750705 59.7784138 70.8750705 61.5216166 61.0728069 61.5216166"></polygon>
                <polygon fill="#FEFEFE" points="61.0728069 61.5216166 70.8750705 61.5216166 70.8750705 63.2648194 61.0728069 63.2648194"></polygon>
                <path d="M61.0728069,63.2648194 L70.8750705,63.2648194 L70.8750705,65.0080222 L61.0728069,65.0080222 L61.0728069,63.2648194 Z M61.0728069,65.0091063 L70.8750705,65.0091063 L61.0728069,65.0091063 Z" id="形状" fill="#FFFFFF"></path>
                <polygon fill="#F1F1F1" points="61.0673865 1.53722735 90.9544252 1.53722735 90.9544252 2.39907203 61.0673865 2.39907203"></polygon>
                <polygon fill="#F2F2F2" points="61.0673865 2.39907203 90.9544252 2.39907203 90.9544252 3.2609167 61.0673865 3.2609167"></polygon>
                <polygon fill="#F3F3F3" points="61.0673865 3.2609167 90.9544252 3.2609167 90.9544252 4.12276137 61.0673865 4.12276137"></polygon>
                <polygon fill="#F4F4F4" points="61.0673865 4.12167729 90.9544252 4.12167729 90.9544252 4.98352196 61.0673865 4.98352196"></polygon>
                <polygon fill="#F5F5F5" points="61.0673865 4.98352196 90.9544252 4.98352196 90.9544252 5.84536664 61.0673865 5.84536664"></polygon>
                <polygon fill="#F6F6F6" points="61.0673865 5.84536664 90.9544252 5.84536664 90.9544252 6.70721131 61.0673865 6.70721131"></polygon>
                <polygon fill="#F7F7F7" points="61.0673865 6.70721131 90.9544252 6.70721131 90.9544252 7.56905598 61.0673865 7.56905598"></polygon>
                <polygon fill="#F9F9F9" points="61.0673865 7.5679719 90.9544252 7.5679719 90.9544252 8.42981657 61.0673865 8.42981657"></polygon>
                <polygon fill="#FAFAFA" points="61.0673865 8.42981657 90.9544252 8.42981657 90.9544252 9.29166125 61.0673865 9.29166125"></polygon>
                <polygon fill="#FBFBFB" points="61.0673865 9.29166125 90.9544252 9.29166125 90.9544252 10.1535059 61.0673865 10.1535059"></polygon>
                <polygon fill="#FCFCFC" points="61.0673865 10.1524218 90.9544252 10.1524218 90.9544252 11.0142665 61.0673865 11.0142665"></polygon>
                <polygon fill="#FDFDFD" points="61.0673865 11.0142665 90.9544252 11.0142665 90.9544252 11.8761112 61.0673865 11.8761112"></polygon>
                <polygon fill="#FEFEFE" points="61.0673865 11.8761112 90.9544252 11.8761112 90.9544252 12.7379559 61.0673865 12.7379559"></polygon>
                <path d="M61.0673865,12.7368718 L90.9544252,12.7368718 L90.9544252,13.7368718 L61.0673865,13.7368718 L61.0673865,12.7368718 Z M61.0673865,13.7368718 L90.9544252,13.7368718 L61.0673865,13.7368718 L61.0673865,13.7368718 Z" id="形状" fill="#FFFFFF"></path>
                <polygon fill="#C5C5C5" points="0 42.2455661 100 42.2455661 100 43.0055071 0 43.0055071"></polygon>
                <polygon fill="#C5C5C5" points="0 43.0044231 100 43.0044231 100 43.5182776 0 43.5182776"></polygon>
                <polygon fill="#C6C6C6" points="0 43.5182776 100 43.5182776 100 44.0321322 0 44.0321322"></polygon>
                <polygon fill="#C7C7C7" points="0 44.0321322 100 44.0321322 100 44.5459867 0 44.5459867"></polygon>
                <polygon fill="#C8C8C8" points="0 38.1163312 100 38.1163312 100 38.6301858 0 38.6301858"></polygon>
                <polygon fill="#C9C9C9" points="0 45.0587572 100 45.0587572 100 45.5726118 0 45.5726118"></polygon>
                <polygon fill="#CACACA" points="0 45.5715277 100 45.5715277 100 46.0853822 0 46.0853822"></polygon>
                <polygon fill="#CBCBCB" points="0 46.0853822 100 46.0853822 100 46.5992368 0 46.5992368"></polygon>
                <polygon fill="#CCCCCC" points="0 46.5981527 100 46.5981527 100 47.1120073 0 47.1120073"></polygon>
                <polygon fill="#CDCDCD" points="0 47.1120073 100 47.1120073 100 47.6258618 0 47.6258618"></polygon>
                <polygon fill="#CECECE" points="0 47.6247778 100 47.6247778 100 48.1386323 0 48.1386323"></polygon>
                <polygon fill="#CFCFCF" points="0 48.1386323 100 48.1386323 100 48.6524869 0 48.6524869"></polygon>
                <polygon fill="#D0D0D0" points="0 48.6514028 100 48.6514028 100 49.1652574 0 49.1652574"></polygon>
                <polygon fill="#D1D1D1" points="0 49.1652574 100 49.1652574 100 49.6791119 0 49.6791119"></polygon>
                <polygon fill="#D2D2D2" points="0 49.6791119 100 49.6791119 100 50.1929665 0 50.1929665"></polygon>
                <polygon fill="#D3D3D3" points="0 50.1918824 100 50.1918824 100 50.705737 0 50.705737"></polygon>
                <polygon fill="#D4D4D4" points="0 50.705737 100 50.705737 100 51.2195915 0 51.2195915"></polygon>
                <polygon fill="#D5D5D5" points="0 51.2185074 100 51.2185074 100 51.732362 0 51.732362"></polygon>
                <polygon fill="#D6D6D6" points="0 51.732362 100 51.732362 100 52.2462166 0 52.2462166"></polygon>
                <polygon fill="#D7D7D7" points="0 52.2451325 100 52.2451325 100 52.758987 0 52.758987"></polygon>
                <polygon fill="#D8D8D8" points="0 52.758987 100 52.758987 100 53.2728416 0 53.2728416"></polygon>
                <polygon fill="#D9D9D9" points="0 53.2717575 100 53.2717575 100 53.7856121 0 53.7856121"></polygon>
                <polygon fill="#DADADA" points="0 53.7856121 100 53.7856121 100 54.2994666 0 54.2994666"></polygon>
                <polygon fill="#DBDBDB" points="0 54.2994666 100 54.2994666 100 54.8133212 0 54.8133212"></polygon>
                <polygon fill="#DCDCDC" points="0 54.8122371 100 54.8122371 100 55.3260917 0 55.3260917"></polygon>
                <polygon fill="#DDDDDD" points="0 55.3260917 100 55.3260917 100 55.8399462 0 55.8399462"></polygon>
                <polygon fill="#DEDEDE" points="0 55.8388621 100 55.8388621 100 56.3527167 0 56.3527167"></polygon>
                <polygon fill="#DFDFDF" points="0 56.3527167 100 56.3527167 100 56.8665713 0 56.8665713"></polygon>
                <polygon fill="#E0E0E0" points="0 56.8654872 100 56.8654872 100 57.3793417 0 57.3793417"></polygon>
                <polygon fill="#E1E1E1" points="0 57.3793417 100 57.3793417 100 57.8931963 0 57.8931963"></polygon>
                <polygon fill="#E3E3E3" points="0 57.8921122 100 57.8921122 100 58.4059668 0 58.4059668"></polygon>
                <polygon fill="#E4E4E4" points="0 58.4059668 100 58.4059668 100 58.9198213 0 58.9198213"></polygon>
                <polygon fill="#E5E5E5" points="0 58.9187373 100 58.9187373 100 59.4325918 0 59.4325918"></polygon>
                <polygon fill="#E6E6E6" points="0 59.4325918 100 59.4325918 100 59.9464464 0 59.9464464"></polygon>
                <polygon fill="#E7E7E7" points="0 59.9464464 100 59.9464464 100 60.4603009 0 60.4603009"></polygon>
                <polygon fill="#E8E8E8" points="0 60.4592169 100 60.4592169 100 60.9730714 0 60.9730714"></polygon>
                <polygon fill="#E9E9E9" points="0 60.9730714 100 60.9730714 100 61.486926 0 61.486926"></polygon>
                <polygon fill="#EAEAEA" points="0 61.4858419 100 61.4858419 100 61.9996965 0 61.9996965"></polygon>
                <polygon fill="#EBEBEB" points="0 61.9996965 100 61.9996965 100 62.513551 0 62.513551"></polygon>
                <polygon fill="#ECECEC" points="0 62.5124669 100 62.5124669 100 63.0263215 0 63.0263215"></polygon>
                <polygon fill="#EDEDED" points="0 63.0263215 100 63.0263215 100 63.5401761 0 63.5401761"></polygon>
                <polygon fill="#EEEEEE" points="0 63.539092 100 63.539092 100 64.0529465 0 64.0529465"></polygon>
                <polygon fill="#EFEFEF" points="0 64.0529465 100 64.0529465 100 64.5668011 0 64.5668011"></polygon>
                <polygon fill="#F0F0F0" points="0 64.565717 100 64.565717 100 65.0795716 0 65.0795716"></polygon>
                <polygon fill="#F1F1F1" points="0 65.0795716 100 65.0795716 100 65.5934261 0 65.5934261"></polygon>
                <polygon fill="#F2F2F2" points="0 65.5934261 100 65.5934261 100 66.1072807 0 66.1072807"></polygon>
                <polygon fill="#F3F3F3" points="0 66.1061966 100 66.1061966 100 66.6200512 0 66.6200512"></polygon>
                <polygon fill="#F4F4F4" points="0 66.6200512 100 66.6200512 100 67.1339057 0 67.1339057"></polygon>
                <polygon fill="#F5F5F5" points="0 67.1328216 100 67.1328216 100 67.6466762 0 67.6466762"></polygon>
                <polygon fill="#F6F6F6" points="0 67.6466762 100 67.6466762 100 68.1605308 0 68.1605308"></polygon>
                <polygon fill="#F7F7F7" points="0 68.1594467 100 68.1594467 100 68.6733012 0 68.6733012"></polygon>
                <polygon fill="#F8F8F8" points="0 68.6733012 100 68.6733012 100 69.1871558 0 69.1871558"></polygon>
                <polygon fill="#F9F9F9" points="0 69.1860717 100 69.1860717 100 69.6999263 0 69.6999263"></polygon>
                <polygon fill="#FAFAFA" points="0 69.6999263 100 69.6999263 100 70.2137808 0 70.2137808"></polygon>
                <polygon fill="#FBFBFB" points="0 70.2137808 100 70.2137808 100 70.7276354 0 70.7276354"></polygon>
                <polygon fill="#FCFCFC" points="0 70.7265513 100 70.7265513 100 71.2404059 0 71.2404059"></polygon>
                <polygon fill="#FDFDFD" points="0 71.2404059 100 71.2404059 100 71.7542604 0 71.7542604"></polygon>
                <polygon fill="#FEFEFE" points="0 71.7531764 100 71.7531764 100 72.2670309 0 72.2670309"></polygon>
                <path d="M0,72.2670309 L100,72.2670309 L100,73.1928122 L0,73.1928122 L0,72.2670309 Z M0,73.190859 L100,73.190859 L0,73.190859 Z" id="形状" fill="#FFFFFF"></path>
                <path d="M24.9902433,57.9929318 L56.357053,65.1684662 L24.9902433,65.1684662 L24.9902433,57.9929318 Z M24.9902433,57.3858462 L59.0119683,65.1684662 L56.357053,65.1684662 L24.9902433,57.9929318 L24.9902433,57.3858462 Z" id="形状" fill="#E3E3E3"></path>
                <polygon fill="#E2E2E2" points="24.9902433 56.7787607 61.6679676 65.1684662 59.0119683 65.1684662 24.9902433 57.3858462"></polygon>
                <polygon fill="#E1E1E1" points="24.9902433 56.1716751 62.8485322 64.8313169 62.8485322 65.1684662 61.6679676 65.1684662 24.9902433 56.7787607"></polygon>
                <polygon fill="#E0E0E0" points="24.9902433 55.5635055 62.8485322 64.2231473 62.8485322 64.8313169 24.9902433 56.1716751"></polygon>
                <polygon fill="#DFDFDF" points="24.9902433 54.9564199 62.8485322 63.6160617 62.8485322 64.2231473 24.9902433 55.5635055"></polygon>
                <polygon fill="#DEDEDE" points="24.9902433 54.3493344 62.8485322 63.0089762 62.8485322 63.6160617 24.9902433 54.9564199"></polygon>
                <polygon fill="#DDDDDD" points="24.9902433 53.7411647 62.8485322 62.4008066 62.8485322 63.0089762 24.9902433 54.3493344"></polygon>
                <polygon fill="#DCDCDC" points="24.9902433 53.1340792 62.8485322 61.793721 62.8485322 62.4008066 24.9902433 53.7411647"></polygon>
                <polygon fill="#DBDBDB" points="24.9902433 52.5269936 62.8485322 61.1866354 62.8485322 61.793721 24.9902433 53.1340792"></polygon>
                <polygon fill="#DADADA" points="24.9902433 51.918824 62.8485322 60.5784658 62.8485322 61.1866354 24.9902433 52.5269936"></polygon>
                <polygon fill="#D9D9D9" points="24.9902433 51.3117384 62.8485322 59.9713803 62.8485322 60.5784658 24.9902433 51.918824"></polygon>
                <polygon fill="#D8D8D8" points="24.9902433 50.7046529 62.8485322 59.3642947 62.8485322 59.9713803 24.9902433 51.3117384"></polygon>
                <polygon fill="#D7D7D7" points="24.9902433 50.0975673 62.8485322 58.7561251 62.8485322 59.3642947 24.9902433 50.7046529"></polygon>
                <polygon fill="#D6D6D6" points="24.9902433 49.4893977 62.8485322 58.1490395 62.8485322 58.7561251 24.9902433 50.0975673"></polygon>
                <polygon fill="#D4D4D4" points="24.9902433 48.8823121 62.8485322 57.5419539 62.8485322 58.1490395 24.9902433 49.4893977"></polygon>
                <polygon fill="#D3D3D3" points="24.9902433 48.2752266 62.8485322 56.9348684 62.8485322 57.5419539 24.9902433 48.8823121"></polygon>
                <polygon fill="#D2D2D2" points="24.9902433 47.6670569 62.8485322 56.3266988 62.8485322 56.9348684 24.9902433 48.2752266"></polygon>
                <polygon fill="#D1D1D1" points="24.9902433 47.0599714 62.8485322 55.7196132 62.8485322 56.3266988 24.9902433 47.6670569"></polygon>
                <polygon fill="#D0D0D0" points="24.9902433 46.4528858 62.8485322 55.1125276 62.8485322 55.7196132 24.9902433 47.0599714"></polygon>
                <polygon fill="#CFCFCF" points="24.9902433 45.8447162 62.8485322 54.504358 62.8485322 55.1125276 24.9902433 46.4528858"></polygon>
                <polygon fill="#CECECE" points="24.9902433 45.2376306 62.8485322 53.8972725 62.8485322 54.504358 24.9902433 45.8447162"></polygon>
                <polygon fill="#CDCDCD" points="24.9902433 44.6305451 62.8485322 53.2901869 62.8485322 53.8972725 24.9902433 45.2376306"></polygon>
                <polygon fill="#CCCCCC" points="26.612029 44.3942153 62.8485322 52.6820173 62.8485322 53.2901869 24.9902433 44.6305451 24.9902433 44.3942153"></polygon>
                <polygon fill="#CBCBCB" points="29.2680283 44.3942153 62.8485322 52.0749317 62.8485322 52.6820173 26.612029 44.3942153"></polygon>
                <polygon fill="#CACACA" points="31.9229435 44.3942153 62.8485322 51.4678461 62.8485322 52.0749317 29.2680283 44.3942153"></polygon>
                <polygon fill="#C9C9C9" points="34.5789428 44.3942153 62.8485322 50.8607606 62.8485322 51.4678461 31.9229435 44.3942153"></polygon>
                <polygon fill="#C8C8C8" points="37.233858 44.3942153 62.8485322 50.252591 62.8485322 50.8607606 34.5789428 44.3942153"></polygon>
                <polygon fill="#C8C8C8" points="62.8485322 50.252591 37.233858 44.3942153 62.8485322 44.3942153"></polygon>
                <path d="M48.8573783,18.3166695 C48.8573783,18.3166695 49.8514809,25.9637793 44.7259442,31.6714676 C39.6004076,37.3791559 31.5240016,41.2113835 25.6352717,42.2857081 C25.866181,42.4461521 44.5980226,51.0201726 44.5980226,51.0201726 C44.5980226,51.0201726 51.9134036,51.1155507 60.1318243,38.4664895 C68.350245,25.8174283 67.084038,17.8006467 67.084038,17.8006467 L48.8573783,18.3166695 L48.8573783,18.3166695 Z" fill="#FFFFFF"></path>
                <path d="M53.4723126,46.1114312 L54.6420363,44.2110366 L55.6599887,45.9574916 L53.4723126,46.1114312 L53.4723126,46.1114312 Z M54.824162,44.1145533 L71.6740384,33.4862198 L72.7516153,35.1004169 L55.8074238,45.8284859 L54.824162,44.1145533 L54.824162,44.1145533 Z" fill="#707070"></path>
                <path d="M58.515459,30.9657306 C58.4829366,30.9657306 58.44933,30.9624784 58.4157235,30.957058 L50.7621092,29.6702534 C50.4368848,29.6160494 50.2179004,29.3081703 50.2731885,28.9829459 C50.3273926,28.6577214 50.6352717,28.4398211 50.9604961,28.4940252 L58.6141104,29.7808297 C58.9393348,29.8350338 59.1583192,30.1429129 59.1030311,30.4681373 C59.0542975,30.7548516 58.8062843,30.964885 58.515459,30.9657306 L58.515459,30.9657306 Z M57.035688,34.2450767 C56.9977451,34.2450767 56.9587182,34.2418245 56.9196913,34.2342359 L49.0731104,32.6905041 C48.9179796,32.6599131 48.7813614,32.568934 48.693325,32.4375911 C48.6052886,32.3062481 48.5730494,32.145306 48.6037032,31.9901875 C48.6341614,31.8349855 48.7251112,31.6982761 48.8564909,31.6102151 C48.9878706,31.5221541 49.148886,31.4899766 49.3040198,31.5207803 L57.1495165,33.0645121 C57.4725727,33.1284729 57.6828845,33.4417724 57.6189237,33.7648287 C57.5647197,34.048858 57.3153809,34.2450767 57.035688,34.2450767 L57.035688,34.2450767 Z M54.9130567,37.5894677 C54.8707775,37.5894677 54.8274142,37.5851314 54.784051,37.5753746 L46.6165821,35.7736314 C46.2946099,35.7031661 46.0918867,35.3844462 46.162352,35.0624741 C46.2328173,34.7405019 46.5515372,34.5377787 46.8735094,34.608244 L55.0409783,36.4099872 C55.2701384,36.4092271 55.479502,36.53973 55.5797324,36.7458097 C55.6799628,36.9518893 55.653362,37.1971576 55.5112808,37.3769572 C55.3691995,37.5567567 55.1367255,37.6393398 54.9130567,37.5894677 Z M45.8252027,40.0275666 C45.7709987,40.0275666 45.7146264,40.0199781 45.6593383,40.0037169 L42.6466762,39.1353677 C42.4947136,39.0915371 42.3663911,38.9891266 42.2899459,38.8506713 C42.2135007,38.712216 42.1951967,38.5490609 42.2390616,38.3971083 C42.2828922,38.2451457 42.3853028,38.1168232 42.5237581,38.040378 C42.6622134,37.9639328 42.8253684,37.9456287 42.977321,37.9894937 L45.9899831,38.8578429 C46.1419457,38.9016734 46.2702682,39.004084 46.3467134,39.1425393 C46.4231586,39.2809946 46.4414626,39.4441496 46.3975977,39.5961023 C46.321712,39.8584499 46.0832141,40.0275666 45.8252027,40.0275666 L45.8252027,40.0275666 Z" fill="#707070"></path>
            </g>
        </g>
    </g>
</svg>
