<?xml version="1.0" standalone="no"?><!DOCTYPE svg PUBLIC "-//W3C//DTD SVG 1.1//EN"
  "http://www.w3.org/Graphics/SVG/1.1/DTD/svg11.dtd">
<svg t="1741696948909" class="icon" viewBox="0 0 1024 1024" version="1.1" xmlns="http://www.w3.org/2000/svg"
     p-id="14210" width="32" height="32" xmlns:xlink="http://www.w3.org/1999/xlink">
  <path
    d="M512 0C226.816 0 0 226.816 0 512s226.816 512 512 512 512-226.816 512-512S797.184 0 512 0z m80.384 701.952c-36.352 58.368-80.384 102.4-146.432 102.4-44.032-7.168-66.048-36.352-51.2-73.216l87.552-285.184c0-7.168 0-14.848-7.168-14.848s-22.016 7.168-36.352 14.848l-51.2 66.048v-36.352c36.352-58.368 102.4-102.4 146.432-102.4 44.032 7.168 58.368 36.352 51.2 73.216l-80.384 285.184c0 7.168 0 14.848 7.168 14.848s22.016-7.168 29.184-14.848l51.2-58.368v28.672z m-14.336-372.736c-29.184 0-58.368-22.016-58.368-58.368s29.184-58.368 58.368-58.368 58.368 22.016 58.368 58.368-22.016 58.368-58.368 58.368z"
    fill="#666666" p-id="14211"></path>
</svg>
