<?xml version="1.0" encoding="UTF-8"?>
<svg width="18px" height="18px" viewBox="0 0 18 18" version="1.1" xmlns="http://www.w3.org/2000/svg" xmlns:xlink="http://www.w3.org/1999/xlink">
    <g id="NY-Zodiac" stroke="none" stroke-width="1" fill="none" fill-rule="evenodd">
        <g id="切图" transform="translate(-230.000000, -202.000000)">
            <g id="编组-37" transform="translate(230.000000, 202.000000)">
                <g id="编组-14" transform="translate(2.000000, 2.000000)" fill-rule="nonzero">
                    <path d="M0,7 C0,9.50085084 1.33416214,11.811743 3.4999799,13.0621756 C5.66579765,14.3126081 8.33420235,14.3126081 10.5000201,13.0621756 C12.6658379,11.811743 14,9.50085084 14,7 C14,4.49914916 12.6658379,2.18825705 10.5000201,0.93782445 C8.33420235,-0.31260815 5.66579765,-0.31260815 3.4999799,0.93782445 C1.33416214,2.18825705 0,4.49914916 0,7 Z" id="路径" fill="#FF5F5F"></path>
                    <path d="M10.3127576,8 L3.68684025,8 C3.30763044,8 3,7.55210773 3,7 C3,6.44789227 3.30763044,6 3.68684025,6 L10.3131597,6 C10.6923696,6 11,6.44789227 11,7 C11,7.55210773 10.6923696,8 10.3127576,8 L10.3127576,8 Z" id="路径" fill="#FFFDFD"></path>
                </g>
                <rect id="矩形" x="0" y="0" width="18" height="18"></rect>
            </g>
        </g>
    </g>
</svg>