<?xml version="1.0" encoding="UTF-8"?>
<svg width="75px" height="75px" viewBox="0 0 75 75" version="1.1" xmlns="http://www.w3.org/2000/svg" xmlns:xlink="http://www.w3.org/1999/xlink">
    <title>编组 2</title>
    <g id="NY-Zodiac" stroke="none" stroke-width="1" fill="none" fill-rule="evenodd">
        <g id="切图" transform="translate(-680.000000, -87.000000)">
            <g id="编组-2" transform="translate(680.000000, 87.000000)">
                <rect id="矩形备份-2" fill="#FFFFFF" x="0" y="0" width="75" height="75" rx="4"></rect>
                <g id="编组-15" transform="translate(12.000000, 14.000000)" fill-rule="nonzero">
                    <path d="M31.9714286,33.9300699 C31.9714286,35.0769231 31.0285714,36 29.8571429,36 L2.11428571,36 C0.942857143,36 0,35.0769231 0,33.9300699 L0,9.76223776 L10.7714286,0 L29.8857143,0 C31.0571429,0 32,0.923076923 32,2.06993007 L32,33.9300699 L31.9714286,33.9300699 Z" id="路径" fill="#588EA0"></path>
                    <polygon id="路径" fill="#7FB0C1" points="11 0 11 10 0 10"></polygon>
                    <path d="M26.5460993,32 L7.45390071,32 C7.19858156,32 7,31.8039539 7,31.5518946 L7,15.4481054 C7,15.1960461 7.19858156,15 7.45390071,15 L26.5460993,15 C26.8014184,15 27,15.1960461 27,15.4481054 L27,31.5518946 C27,31.8039539 26.8014184,32 26.5460993,32 Z M7.90780142,31.1037891 L26.0921986,31.1037891 L26.0921986,15.8962109 L7.90780142,15.8962109 L7.90780142,31.1037891 Z" id="形状" fill="#15595F"></path>
                    <path d="M12.5,32 C12.21875,32 12,31.8039539 12,31.5518946 L12,15.4481054 C12,15.1960461 12.21875,15 12.5,15 C12.78125,15 13,15.1960461 13,15.4481054 L13,31.5518946 C13,31.8039539 12.78125,32 12.5,32 Z" id="路径" fill="#15595F"></path>
                    <path d="M26.5460993,19.9290323 L7.45390071,19.9290323 C7.19858156,19.9290323 7,19.7258065 7,19.4645161 C7,19.2032258 7.19858156,19 7.45390071,19 L26.5460993,19 C26.8014184,19 27,19.2032258 27,19.4645161 C27,19.7258065 26.8014184,19.9290323 26.5460993,19.9290323 Z M26.5460993,24.0225806 L7.45390071,24.0225806 C7.19858156,24.0225806 7,23.8193548 7,23.5580645 C7,23.2967742 7.19858156,23.0935484 7.45390071,23.0935484 L26.5460993,23.0935484 C26.8014184,23.0935484 27,23.2967742 27,23.5580645 C27,23.8193548 26.8014184,24.0225806 26.5460993,24.0225806 Z M26.5460993,28 L7.45390071,28 C7.19858156,28 7,27.7967742 7,27.5354839 C7,27.2741935 7.19858156,27.0709677 7.45390071,27.0709677 L26.5460993,27.0709677 C26.8014184,27.0709677 27,27.2741935 27,27.5354839 C27,27.7967742 26.8014184,28 26.5460993,28 Z" id="形状" fill="#15595F"></path>
                    <path d="M50.9717466,45.7913562 C50.9717466,47.0089419 49.9828767,48 48.7679795,48 L20.2037671,48 C18.9888699,48 18,47.0089419 18,45.7913562 L18,20.3070045 L29.1035959,10 L48.7962329,10 C50.0111301,10 51,10.9910581 51,12.2086438 L51,45.7913562 L50.9717466,45.7913562 Z" id="路径" fill="#F2F2F2"></path>
                    <polygon id="路径" fill="#CCCCCC" points="29 10 29 20 18 20"></polygon>
                    <path d="M43.4840764,31.2284264 L26.5159236,31.2284264 C26.2292994,31.2284264 26,30.9492386 26,30.6142132 C26,30.2791878 26.2292994,30 26.5159236,30 L43.4840764,30 C43.7707006,30 44,30.2791878 44,30.6142132 C44,30.9492386 43.7707006,31.2284264 43.4840764,31.2284264 Z M43.4840764,36.1142132 L26.5159236,36.1142132 C26.2292994,36.1142132 26,35.8350254 26,35.5 C26,35.1649746 26.2292994,34.8857868 26.5159236,34.8857868 L43.4840764,34.8857868 C43.7707006,34.8857868 44,35.1649746 44,35.5 C44,35.8350254 43.7707006,36.1142132 43.4840764,36.1142132 Z M35,41 L26.5159236,41 C26.2292994,41 26,40.7208122 26,40.3857868 C26,40.0507614 26.2292994,39.7715736 26.5159236,39.7715736 L35,39.7715736 C35.2866242,39.7715736 35.5159236,40.0507614 35.5159236,40.3857868 C35.5159236,40.7208122 35.2866242,41 35,41 Z" id="形状" fill="#B3B3B3"></path>
                    <path d="M43.4840764,26 L26.5159236,26 C26.2292994,26 26,25.7727273 26,25.5 C26,25.2272727 26.2292994,25 26.5159236,25 L43.4840764,25 C43.7707006,25 44,25.2272727 44,25.5 C44,25.7727273 43.7707006,26 43.4840764,26 L43.4840764,26 Z" id="路径" fill="#B3B3B3"></path>
                </g>
            </g>
        </g>
    </g>
</svg>