<?xml version="1.0" encoding="UTF-8"?>
<svg width="75px" height="75px" viewBox="0 0 75 75" version="1.1" xmlns="http://www.w3.org/2000/svg" xmlns:xlink="http://www.w3.org/1999/xlink">
    <title>编组 9</title>
    <g id="NY-Zodiac" stroke="none" stroke-width="1" fill="none" fill-rule="evenodd">
        <g id="切图" transform="translate(-777.000000, -87.000000)">
            <g id="编组-9" transform="translate(777.000000, 87.000000)">
                <rect id="矩形备份-2" fill="#F4EAEA" x="0" y="0" width="75" height="75" rx="4"></rect>
                <g id="编组-18" transform="translate(22.000000, 29.000000)" fill-rule="nonzero">
                    <g id="编组-17" fill="#CF9999">
                        <path d="M16.3547801,28.3133641 C16.3547801,23.4470046 20.2282806,19.4654378 24.9625591,19.4654378 C26.0385314,19.4654378 27.3296983,19.6866359 28.1904762,20.1290323 L28.1904762,9.73271889 L18.7219193,0 L1.50636132,0 C0.645583424,0 0,0.66359447 0,1.5483871 L0,32.7373272 C0,33.6221198 0.645583424,34.2857143 1.50636132,34.2857143 L18.7219193,34.2857143 C17.215558,32.7373272 16.3547801,30.7465438 16.3547801,28.3133641 L16.3547801,28.3133641 Z M7.31661214,13.0506912 L21.0890585,13.0506912 C21.9498364,13.0506912 22.5954198,13.7142857 22.5954198,14.5990783 C22.5954198,15.483871 21.9498364,16.1474654 21.0890585,16.1474654 L7.31661214,16.1474654 C6.45583424,16.1474654 5.81025082,15.483871 5.81025082,14.5990783 C5.81025082,13.7142857 6.45583424,13.0506912 7.31661214,13.0506912 Z M13.5572519,24.7741935 L7.31661214,24.7741935 C6.45583424,24.7741935 5.81025082,24.1105991 5.81025082,23.2258065 C5.81025082,22.3410138 6.45583424,21.6774194 7.31661214,21.6774194 L13.5572519,21.6774194 C14.4180298,21.6774194 15.0636132,22.3410138 15.0636132,23.2258065 C15.0636132,24.1105991 14.4180298,24.7741935 13.5572519,24.7741935 Z" id="形状"></path>
                        <g id="编组" transform="translate(18.285714, 21.333333)">
                            <path d="M6.85714286,0 C3.07035429,0 0,3.07035429 0,6.85714286 C0,10.6439314 3.07035429,13.7142857 6.85714286,13.7142857 C10.6439314,13.7142857 13.7142857,10.6439314 13.7142857,6.85714286 C13.7142857,3.07035429 10.6439314,0 6.85714286,0 Z M6.36726857,3.55090286 C6.36726857,3.48370286 6.4224,3.42857143 6.48987429,3.42857143 L7.22441143,3.42857143 C7.29188571,3.42857143 7.34701714,3.48342857 7.34701714,3.55090286 L7.34701714,7.71428571 C7.34701714,7.78176 7.29188571,7.83661714 7.22441143,7.83661714 L6.48987429,7.83661714 C6.42233023,7.83646705 6.36756994,7.78182926 6.36726857,7.71428571 L6.36726857,3.55090286 Z M6.85714286,10.2857143 C6.59118589,10.2908025 6.34322983,10.1518104 6.20878934,9.92227881 C6.07434885,9.69274722 6.0744019,9.40849203 6.20892804,9.17901062 C6.34345418,8.94952922 6.5914621,8.81062965 6.85741714,8.81581714 C7.2577836,8.82362635 7.57824233,9.15045763 7.57816762,9.55090023 C7.57809288,9.95134284 7.2575122,10.2780545 6.85714286,10.2857143 L6.85714286,10.2857143 Z" id="形状"></path>
                        </g>
                    </g>
                    <path d="M18.7219193,0 L28.1904762,9.73271889 L21.2987013,9.9047619 C20.1731602,9.9047619 19.047619,9.004329 19.047619,7.65367965 L18.7219193,0 Z" id="路径" fill="#E2CACA"></path>
                </g>
                <text id="解析失败" font-family="PingFangSC-Regular, PingFang SC" font-size="10" font-weight="normal" letter-spacing="-0.583333333" fill="#BA4646" fill-opacity="0.9">
                    <tspan x="19" y="22">解析失败</tspan>
                </text>
            </g>
        </g>
    </g>
</svg>