<?xml version="1.0" encoding="UTF-8"?>
<svg width="18px" height="18px" viewBox="0 0 18 18" version="1.1" xmlns="http://www.w3.org/2000/svg" xmlns:xlink="http://www.w3.org/1999/xlink">
    <g id="NY-Zodiac" stroke="none" stroke-width="1" fill="none" fill-rule="evenodd">
        <g id="切图" transform="translate(-846.000000, -31.000000)">
            <g id="编组-18" transform="translate(846.000000, 31.000000)">
                <g id="编组-7" transform="translate(1.000000, 2.000000)" fill-rule="nonzero">
                    <path d="M14.6983368,4.79377829 L10.4444647,4.79377829 C10.2173448,4.79377829 10.0520373,4.57754829 10.1107998,4.35764646 L10.5817126,2.594556 C10.8755248,1.49443488 10.224868,0.363715178 9.12830802,0.0689488111 C8.95869319,0.0232121599 8.78382385,-2.84217094e-14 8.60818925,-2.84217094e-14 C7.71597614,-2.84217094e-14 6.89411529,0.599324281 6.65276229,1.50259451 L6.2501684,3.0096768 C5.969166,4.06186014 5.01859711,4.79377829 3.93261027,4.79377829 L0.650656784,4.79377829 C0.291372241,4.79377829 0,5.08609677 0,5.4465481 L0,14.5853254 C0,14.9457768 0.291372241,15.2380952 0.650656784,15.2380952 L13.234359,15.2380952 C13.8606161,15.2380952 14.398018,14.7905399 14.5133062,14.1730605 L15.977284,6.33982278 C16.127545,5.53650794 15.5132844,4.79377829 14.6983368,4.79377829 Z" id="路径" fill="#647EA6"></path>
                    <polygon id="路径" fill="#E5AC7F" points="1.30131357 6.09931791 3.20509465 6.09931791 2.64735979 13.9325556 1.30131357 13.9325556"></polygon>
                    <path d="M13.234359,13.9325556 L3.95212997,13.9325556 L4.51332145,6.05056416 C5.93602317,5.82311468 7.12550511,4.77684707 7.50735931,3.34748518 L7.90995319,1.84040288 C7.9927086,1.53033722 8.28652081,1.30553962 8.60839258,1.30553962 C8.66959499,1.30553962 8.73120405,1.31369924 8.79159314,1.33001849 C9.1933737,1.4379295 9.43249007,1.85386626 9.32492837,2.25674763 L8.85401552,4.01983808 C8.72042755,4.52002295 8.82412597,5.04244279 9.1382712,5.4530758 C9.45241643,5.86391279 9.92861587,6.0995219 10.444668,6.0995219 L14.6985401,6.0995219 L13.234359,13.9325556 Z" id="路径" fill="#647EA6"></path>
                </g>
                <rect id="矩形备份-7" x="0" y="0" width="18" height="18"></rect>
            </g>
        </g>
    </g>
</svg>
