<?xml version="1.0" encoding="UTF-8"?>
<svg width="18px" height="17px" viewBox="0 0 18 17" version="1.1" xmlns="http://www.w3.org/2000/svg" xmlns:xlink="http://www.w3.org/1999/xlink">
    <g id="NY-Zodiac" stroke="none" stroke-width="1" fill="none" fill-rule="evenodd">
        <g id="参数设置备份" transform="translate(-438.000000, -500.000000)">
            <g id="编组-38" transform="translate(438.000000, 500.000000)">
                <rect id="矩形" x="0" y="0" width="18" height="17"></rect>
                <g id="编组-6" transform="translate(3.000000, 3.000000)" fill="#000000" fill-opacity="0.215712861" fill-rule="nonzero">
                    <path d="M6,12 C2.7,12 0,9.3 0,6 C0,2.7 2.7,0 6,0 C9.3,0 12,2.7 12,6 C12,9.3 9.3,12 6,12 Z M6,0.999999996 C3.25,0.999999996 0.999999996,3.25 0.999999996,6 C0.999999996,8.75 3.25,11 6,11 C8.75,11 11,8.75 11,6 C11,3.25 8.75,0.999999996 6,0.999999996 Z" id="形状"></path>
                    <path d="M6,3.6 C5.9,3.5 5.85,3.4 5.85,3.25 C5.85,3.1 5.9,3 6,2.9 C6.1,2.80000001 6.2,2.75 6.35,2.75 C6.5,2.75 6.6,2.80000001 6.7,2.9 C6.79999999,3 6.85,3.10000001 6.85,3.25 C6.85,3.4 6.79999999,3.49999999 6.7,3.6 C6.6,3.7 6.45,3.75 6.35,3.75 C6.2,3.75 6.10000001,3.7 6,3.6 Z M7.15,8.4 C7.09999999,8.4 7.05,8.45 7.05,8.45 C6.65,9.10000001 5.75,9.70000001 5.9,8.85 C5.9,8.8 6.70000001,4.75 6.7,4.75 C6.75,4.5 6.55,4.2 6.3,4.15 C6.05,4.09999999 5.85,4.24999999 5.75,4.5 L5,8.45 C4.75000001,10.25 6.55000001,9.95 7.25,8.6 C7.3,8.55 7.3,8.50000001 7.3,8.45 C7.24999999,8.45 7.2,8.4 7.15,8.4 L7.15,8.4 Z" id="形状"></path>
                </g>
            </g>
        </g>
    </g>
</svg>