<?xml version="1.0" encoding="UTF-8"?>
<svg width="28px" height="28px" viewBox="0 0 28 28" version="1.1" xmlns="http://www.w3.org/2000/svg" xmlns:xlink="http://www.w3.org/1999/xlink">
    <g id="NY-Zodiac" stroke="none" stroke-width="1" fill="none" fill-rule="evenodd">
        <g transform="translate(-17.000000, -16.000000)">
            <g  transform="translate(17.000000, 16.000000)">
                <rect x="0" y="0" width="28" height="28"></rect>
                <g transform="translate(4.000000, 3.172414)" fill="#5677CF" fill-opacity="0.313755702" fill-rule="nonzero">
                    <path d="M14.6975659,20.6896552 C11.773023,20.6896552 9.39513178,18.0979208 9.39513178,14.9103746 C9.39513178,11.7228284 11.773023,9.13109405 14.6975659,9.13109405 C17.6221088,9.13109405 20,11.7228284 20,14.9103746 C20,18.0979208 17.6193207,20.6896552 14.6975659,20.6896552 Z M14.6975659,10.6431889 C12.538859,10.6431889 10.7824642,12.5574947 10.7824642,14.9103746 C10.7824642,17.2632545 12.5388213,19.1775603 14.6975659,19.1775603 C16.8563105,19.1775603 18.6126676,17.2632545 18.6126676,14.9103746 C18.6098795,12.5575358 16.8535035,10.6431889 14.6975659,10.6431889 Z M12.2447733,5.16325154 L4.22590372,5.16325154 C3.84299515,5.16325154 3.53221867,4.82452703 3.53221867,4.40718359 C3.53221867,3.98984016 3.84299515,3.65111562 4.22590372,3.65111562 L12.2447733,3.65111562 C12.6276819,3.65111562 12.9384584,3.98984014 12.9384584,4.40718359 C12.9384584,4.82452705 12.6276819,5.16325154 12.2447733,5.16325154 Z M9.76417532,9.18246635 L4.22309681,9.18246635 C3.84018824,9.18246635 3.52941176,8.84374183 3.52941176,8.4263984 C3.52941176,8.00905496 3.84018824,7.67033042 4.22309681,7.67033042 L9.76138723,7.67033042 C10.1442958,7.67033042 10.4550723,8.00905494 10.4550723,8.4263984 C10.4550723,8.84374185 10.1470839,9.18246635 9.76415648,9.18246635 L9.76417532,9.18246635 Z M6.86184288,13.1986423 L4.22309681,13.1986423 C3.84018824,13.1986423 3.52941176,12.8599178 3.52941176,12.4425744 C3.52941176,12.0252309 3.84018824,11.6865064 4.22309681,11.6865064 L6.86184288,11.6865064 C7.24475145,11.6865064 7.55552792,12.0252309 7.55552792,12.4425744 C7.55552792,12.8599178 7.24753952,13.1986423 6.86184288,13.1986423 Z" id="形状"></path>
                    <path d="M15.7675751,16.3081086 L13.5940282,16.3081086 L13.5940282,13.3220782 C13.5940282,12.9148914 13.9089666,12.5844101 14.2970032,12.5844101 C14.6850397,12.5844101 14.9999782,12.9148914 14.9999782,13.3220782 L14.9999782,14.8328125 L15.7676132,14.8328125 C16.1556498,14.8328125 16.4705882,15.1632937 16.4705882,15.5704806 C16.4705882,15.9776674 16.1556498,16.3081487 15.7676132,16.3081487 L15.7675751,16.3081086 Z M2.15821343,18.2555781 C1.97261413,18.2555781 1.19094747,18.2171552 0.608911718,17.6240839 C0.330550948,17.3407999 0.00156178328,16.8244342 0.00156178328,15.9717377 L0.00156178328,2.33394242 C-0.00687627933,2.14216834 -0.00126362449,1.30415589 0.566740476,0.666832099 C0.839507681,0.36293438 1.34283267,0 2.19481019,0 L13.4084862,0.00586961764 C13.4591146,0.0117392353 13.920211,0.0737207314 14.3870347,0.354039819 C15.0731336,0.764191537 15.4499067,1.44578783 15.4499067,2.27488569 L15.4499067,9.17640867 C15.4499067,9.58359554 15.1349682,9.91407678 14.7469316,9.91407678 C14.3588951,9.91407678 14.0439566,9.58359554 14.0439566,9.17640867 L14.0439566,2.27194088 C14.0439566,1.98278732 13.9455634,1.79690289 13.7149675,1.64938128 C13.5378062,1.53727768 13.3465943,1.49004033 13.2735153,1.47529616 L2.1947911,1.47529616 C1.91643033,1.47529616 1.71679941,1.54022249 1.59586014,1.67005514 C1.4299624,1.85008999 1.40186097,2.15985732 1.40464819,2.27200097 L1.4074736,2.3015093 L1.4074736,15.9658681 C1.4074736,16.3760198 1.54525082,16.5146869 1.5902284,16.5618642 C1.79268475,16.7684025 2.1441436,16.777277 2.15258168,16.777277 L8.77732358,16.777277 C9.16536013,16.777277 9.48029858,17.1077582 9.48029858,17.5149451 C9.48029858,17.922132 9.16536013,18.2526132 8.77732358,18.2526132 L2.17789589,18.2526132 C2.17230232,18.2555781 2.16384517,18.2555781 2.15821343,18.2555781 L2.15821343,18.2555781 Z" id="形状"></path>
                </g>
            </g>
        </g>
    </g>
</svg>
