<?xml version="1.0" standalone="no"?><!DOCTYPE svg PUBLIC "-//W3C//DTD SVG 1.1//EN" "http://www.w3.org/Graphics/SVG/1.1/DTD/svg11.dtd"><svg t="1743129907930" class="icon" viewBox="0 0 1024 1024" version="1.1" xmlns="http://www.w3.org/2000/svg" p-id="2934" xmlns:xlink="http://www.w3.org/1999/xlink" width="200" height="200"><path d="M488.384 497.017L758.59 223.159c17.115-17.347 44.928-17.92 62.743-1.292 15.367 14.342 17.651 37.452 6.337 54.377l-5.288 6.441L593.067 512l229.315 229.315c16.514 16.515 16.514 43.29 0 59.806l-1.049 1.012c-17.815 16.628-45.628 16.055-62.743-1.292L488.384 526.983c-8.197-8.307-8.197-21.659 0-29.966z m-302.632-0.102L460.8 221.867c16.495-16.495 43.238-16.495 59.733 0 16.495 16.495 16.495 43.238 0 59.733L290.133 512l230.4 230.4c16.495 16.495 16.495 43.238 0 59.733-16.495 16.495-43.238 16.495-59.733 0L185.752 527.085c-8.332-8.331-8.332-21.839 0-30.17z" fill="#515151" fill-opacity=".9" p-id="2935"></path></svg>