<?xml version="1.0" standalone="no"?><!DOCTYPE svg PUBLIC "-//W3C//DTD SVG 1.1//EN" "http://www.w3.org/Graphics/SVG/1.1/DTD/svg11.dtd"><svg t="1743130061157" class="icon" viewBox="0 0 1024 1024" version="1.1" xmlns="http://www.w3.org/2000/svg" p-id="8927" xmlns:xlink="http://www.w3.org/1999/xlink" width="200" height="200"><path d="M525.888 497.017L255.68 223.159c-17.115-17.347-44.928-17.92-62.743-1.292-15.367 14.342-17.651 37.452-6.337 54.377l5.289 6.441L421.204 512 191.89 741.315c-16.515 16.515-16.515 43.29 0 59.806l1.048 1.012c17.815 16.628 45.628 16.055 62.743-1.292l270.207-273.858c8.196-8.307 8.196-21.659 0-29.966z m302.632-0.102L553.47 221.867c-16.495-16.495-43.238-16.495-59.733 0-16.495 16.495-16.495 43.238 0 59.733l230.4 230.4-230.4 230.4c-16.495 16.495-16.495 43.238 0 59.733 16.495 16.495 43.238 16.495 59.733 0L828.52 527.085c8.33-8.331 8.33-21.839 0-30.17z" fill="#515151" fill-opacity=".9" p-id="8928"></path></svg>