<svg width="128" height="128" viewBox="4 4 16 16" version="1.1" xmlns="http://www.w3.org/2000/svg" xmlns:xlink="http://www.w3.org/1999/xlink">
                <path d="M12.2167052,4 L12.3483158,4.0291232 C12.8282421,4.13531438 13.1097872,4.40347357 13.6291324,4.89858555 L13.767429,5.03017795 C13.8759067,5.13317634 13.9269635,5.17113704 14.0435931,5.2579598 L14.1135459,5.31012048 L14.1810137,5.3684198 L16.777239,7.65900947 L16.779563,7.65645171 C16.8704676,7.73523075 16.9760493,7.8379469 17.0867259,7.94521411 C17.1317997,7.98917261 17.1773229,8.03268029 17.2232884,8.07573048 C17.2650312,8.11497888 17.3227561,8.1713731 17.3787469,8.22607391 C17.4453567,8.29112924 17.5090525,8.35329165 17.5883192,8.41875269 C17.6709288,8.48698318 17.6939008,8.50352924 17.7160147,8.51942264 C17.8333773,8.60409335 17.9423019,8.68248432 18.0891795,8.82099149 C18.1685892,8.89581923 18.2632659,8.98892173 18.3583895,9.08255342 C18.524163,9.24580914 18.6939053,9.41299851 18.8499359,9.53533005 C18.9097166,9.58204006 18.9384986,9.60269618 18.9681744,9.62372274 C19.4331199,9.9534446 20,10.3555246 20,11.231108 C20,12.5217542 19.2994534,12.7648297 18.1317983,12.7699981 L18.1317983,16.9416888 C18.1317983,17.2278228 18.0736265,17.4894201 17.9793967,17.7241872 C17.8768721,17.9804573 17.7280817,18.2027531 17.5676891,18.3877234 C17.4219735,18.5556183 17.1844774,18.7537831 16.9228651,18.890685 C16.6738741,19.0207075 16.384624,19.1111111 16.082413,19.1111111 L12.5799482,19.1111111 L12.5799482,13.335669 L11.4892894,13.335669 L11.4892894,19.1111111 L8.60951683,19.1111111 C7.82612815,19.1111111 7.14283288,18.7349968 6.65403954,18.1810739 C6.16869645,17.6311906 5.86827321,16.8802496 5.86827321,16.1628946 L5.86827321,12.7740024 C4.7003857,12.7686928 4,12.5248941 4,11.231108 C4,10.3839246 4.52955294,9.99823188 4.99249612,9.66124245 C5.06230587,9.61049294 5.12864747,9.56219536 5.13440387,9.5570622 C5.18054444,9.51548535 5.28113841,9.41821987 5.37872903,9.32405899 C5.58018512,9.12958095 5.76778651,8.94852675 6.04800872,8.7428122 L7.29221322,7.65856847 L7.49840671,7.46333193 L7.50262569,7.45916895 L7.7098918,7.26361489 L7.7351699,7.23863703 L9.95097229,5.29336274 L9.9763934,5.27254786 C10.2083834,5.08082162 10.4057457,4.90572964 10.5677114,4.76208931 C11.0193563,4.36147337 11.281201,4.12889352 11.7337755,4.0291232 L11.8658151,4 L12.2167052,4 Z"></path>
</svg>