<?xml version="1.0" encoding="UTF-8"?>
<svg width="97px" height="97px" viewBox="30 30 36 36" version="1.1" xmlns="http://www.w3.org/2000/svg" xmlns:xlink="http://www.w3.org/1999/xlink">
    <defs>
        <filter x="-81.1%" y="-81.1%" width="262.2%" height="262.2%" filterUnits="objectBoundingBox" id="filter-1">
<!--            <feGaussianBlur stdDeviation="10" in="SourceGraphic"></feGaussianBlur>-->
        </filter>
        <linearGradient x1="50%" y1="0%" x2="50%" y2="98.4703651%" id="linearGradient-2">
            <stop stop-color="#4FB7C4" offset="0%"></stop>
            <stop stop-color="#2071EB" offset="100%"></stop>
        </linearGradient>
    </defs>
    <g id="NY-Zodiac" stroke="none" stroke-width="1" fill="none" fill-rule="evenodd">
        <g id="一栏备份" transform="translate(-867.000000, -401.000000)">
            <g id="编组-7" transform="translate(897.000000, 431.000000)">
                <circle id="椭圆形" fill="#72EFF4" opacity="0.149496169" filter="url(#filter-1)" cx="18.5" cy="18.5" r="18.5"></circle>
                <path d="M19.0182529,7.02978336 L19.1201913,7.06963742 L32.5585648,13.5025803 C32.8268527,13.6304728 33,13.9188387 33,14.2353442 C33,14.5121731 32.8665103,14.7658939 32.652638,14.9106766 L32.556212,14.9658064 L28.1345604,17.0645397 L28.1340702,25.5696649 L28.1322678,25.6026349 C28.1337459,25.6271436 28.1345604,25.6548293 28.1345604,25.6856273 C28.1357368,26.5005406 27.7923682,27.2434516 27.2786878,27.8398942 C26.761297,28.440389 26.066928,28.9326697 25.2430907,29.3404992 C23.5953858,30.1499338 21.4092954,30.6227955 18.9994105,30.625 C15.3827431,30.6024689 12.2781876,29.6051021 10.7201332,27.8398942 C10.2047636,27.2434516 9.86193792,26.5005082 9.86398914,25.6855948 C9.86429079,25.6581036 9.86513541,25.6330763 9.86631185,25.6107072 L9.86371765,25.573774 L9.86284287,25.5365977 L9.86284287,17.2653099 L8.44038035,16.6279223 L8.44038035,21.7415141 C8.44038034,22.1832537 8.10717734,22.5413851 7.69626919,22.5413851 C7.31855264,22.5413851 7.00706784,22.2404553 6.95777673,21.8500483 L6.9509816,21.7415141 L6.9509816,15.9935497 L6.95232772,15.9776887 L6.95387745,15.9619737 L5.45720893,15.2912271 C5.18602524,15.1689107 5.00732756,14.8894924 5.00032927,14.5731489 C4.99270128,14.2961499 5.11807802,14.0399258 5.32753538,13.8884171 L5.42230798,13.8301407 L18.4945383,7.07858503 C18.6592142,6.99451207 18.8452781,6.97732557 19.0182529,7.02978336 Z M26.6445885,17.7722763 L23.4786586,19.2748721 C22.086253,21.5870903 21.1976274,23.5455103 20.8127818,25.1501322 L20.8127818,25.1501322 C20.8205126,25.2632695 20.7910943,25.3702617 20.7355921,25.4571805 C20.065873,27.9618742 19.0372521,28.4246307 18.0464192,28.7625623 L17.8340455,28.8340246 C17.7190561,28.8725996 17.6049727,28.9113475 17.4924303,28.953334 C17.9792743,28.99986 18.483608,29.0238243 18.9994407,29.0233129 C22.3335521,29.0458764 25.1930469,27.9596819 26.1824601,26.7536672 C26.5072773,26.3711893 26.6367758,26.0340329 26.645222,25.7155823 C26.6425976,25.6957095 26.6370774,25.6593355 26.6321304,25.6048718 L26.6305768,25.4903797 L26.6445885,25.3768699 L26.6445885,23.4604279 C25.9266606,24.1030349 24.9478956,24.6212506 23.7845206,25.0049929 C23.7423051,25.0189753 23.6983825,25.0260996 23.6542077,25.02613 C23.463263,25.02613 23.2855004,24.8934071 23.2260753,24.6868016 C23.1542222,24.4324107 23.286345,24.1633988 23.5232612,24.0861446 C24.6075435,23.7297963 25.4927969,23.246755 26.0800498,22.7155069 C26.2608591,22.5517024 26.4103457,22.3866943 26.5320347,22.2214264 L26.6445885,22.0561069 L26.6445885,17.7722763 Z M7.18784557,22.75 C7.40913122,22.75 7.59205767,23.0947978 7.6210087,23.5408061 L7.625,23.664771 L7.625,25.335229 C7.625,25.8411063 7.4292481,26.25 7.18784557,26.25 C6.96594262,26.25 6.78294984,25.9064157 6.75399204,25.4594973 L6.75,25.335229 L6.75,23.664771 C6.75,23.1603009 6.94576962,22.75 7.18784557,22.75 Z" id="形状结合" fill="url(#linearGradient-2)" fill-rule="nonzero"></path>
            </g>
        </g>
    </g>
</svg>
