<?xml version="1.0" encoding="UTF-8"?>
<svg width="24px" height="24px" viewBox="0 0 24 24" version="1.1" xmlns="http://www.w3.org/2000/svg" xmlns:xlink="http://www.w3.org/1999/xlink">
    <g id="NY-Zodiac" stroke="none" stroke-width="1" fill="none" fill-rule="evenodd">
        <g transform="translate(-776.000000, -438.000000)">
            <g transform="translate(776.000000, 438.000000)">
                <path d="M22.8972108,11.6022244 C22.9486054,11.6664676 22.9897211,11.7281411 23,11.843779 L23,12.0853335 C22.9970234,12.1723209 22.9612157,12.2549538 22.8997806,12.3166092 L15.3884615,19.8279282 C15.1983015,20.0052395 14.8051329,19.915299 14.4993351,19.6095012 C14.1935373,19.3037034 14.1061666,18.8976862 14.2834779,18.7229446 L20.2067041,12.7920091 L2.83533337,12.7920091 C2.5369179,12.7920703 2.26114445,12.6329027 2.11191905,12.3744775 C1.96269365,12.1160524 1.96269365,11.7976418 2.11191905,11.5392166 C2.26114445,11.2807914 2.5369179,11.1216238 2.83533337,11.121685 L20.2195528,11.121685 L14.2937568,5.19588898 C14.1164455,5.00572902 14.206386,4.61256039 14.5121838,4.30676263 C14.8179816,4.00096483 15.2239988,3.91359404 15.3987404,4.09090536 L22.8972108,11.6022244 Z" id="路径备份-2" fill="#154F96" fill-rule="nonzero"></path>
                <rect id="矩形" x="0" y="0" width="24" height="24"></rect>
            </g>
        </g>
    </g>
</svg>
