<?xml version="1.0" encoding="UTF-8"?>
<svg width="97px" height="97px" viewBox="30 30 36 36" version="1.1" xmlns="http://www.w3.org/2000/svg" xmlns:xlink="http://www.w3.org/1999/xlink">
    <defs>
        <filter x="-81.1%" y="-81.1%" width="262.2%" height="262.2%" filterUnits="objectBoundingBox" id="filter-1">
<!--            <feGaussianBlur stdDeviation="10" in="SourceGraphic"></feGaussianBlur>-->
        </filter>
        <linearGradient x1="50%" y1="0.774847711%" x2="50%" y2="100%" id="linearGradient-2">
            <stop stop-color="#948EF5" offset="0%"></stop>
            <stop stop-color="#396BF3" offset="100%"></stop>
        </linearGradient>
    </defs>
    <g id="NY-Zodiac" stroke="none" stroke-width="1" fill="none" fill-rule="evenodd">
        <g transform="translate(-394.000000, -401.000000)">
            <g transform="translate(424.000000, 431.000000)">
                <circle fill="#2E5BFF" opacity="0.13150533" filter="url(#filter-1)" cx="18.5" cy="18.5" r="18.5"></circle>
                <path d="M18,5 C25.6275002,5 31.8303269,11.097588 31.996578,18.6824982 L32,18.9950323 L31.9884932,19.5740049 C31.8721127,22.47372 30.8536472,25.2614264 29.0801984,27.5507726 L28.8336986,27.8598308 L28.5345205,28.2106652 L30.0016438,30.6703401 L30.0975342,30.8563014 C30.4199869,31.6002378 30.1075122,32.4665451 29.384331,32.8335918 C28.7063487,33.1776981 27.8869897,32.9715463 27.4489452,32.3682862 L27.3665753,32.2423848 L25.5224594,29.1505264 C24.7999011,29.7144856 24.0541774,30.2480616 23.2852883,30.7512545 C21.9028414,31.655985 20.1891658,32.0623726 18.1442615,31.9704172 C18.0249963,32.1458419 17.8177772,32.2423848 17.4591803,32.2423848 C9.72719379,32.2423848 4,26.7242752 4,18.9950323 C4,11.2657894 10.2680135,5 18,5 Z M18.1764383,13.3069144 L18.0613699,13.49671 L15.6986301,18.0498883 L15.6986301,17.9674519 C15.6979295,17.1950684 15.1227622,16.5437172 14.3561644,16.4471696 L14.1643836,16.4337497 C13.3909953,16.4334843 12.7383173,17.008689 12.6416438,17.7757391 L12.630137,17.9674519 L12.630137,24.3361501 C12.630137,25.8717694 14.6035616,26.4200679 15.4224658,25.2180288 L15.5260274,25.0416531 L19.350137,17.6779656 L22.7446575,24.9822221 C23.0682115,25.6780098 23.8563489,26.0277138 24.589589,25.8008357 L24.7832877,25.7260677 C25.4791461,25.4034152 25.8296949,24.6165977 25.6041096,23.883708 L25.5273973,23.6881609 L20.8153425,13.556141 C20.5859692,13.061124 20.110815,12.7251668 19.5674983,12.6738542 C19.0241816,12.6225416 18.4944937,12.8635983 18.1764383,13.3069144 Z M14.3024658,11.7367868 C13.6523523,11.7154563 13.0422791,12.0499901 12.710906,12.6095188 C12.379533,13.1690475 12.379533,13.8646322 12.710906,14.4241609 C13.0422791,14.9836897 13.6523523,15.3182234 14.3024658,15.2968929 C15.2631714,15.2653718 16.0256639,14.4777217 16.0256639,13.5168399 C16.0256639,12.555958 15.2631714,11.7683079 14.3024658,11.7367868 Z" id="形状结合" fill="url(#linearGradient-2)"></path>
            </g>
        </g>
    </g>
</svg>
