<?xml version="1.0" encoding="UTF-8"?>
<svg width="97px" height="97px" viewBox="30 30 36 36" version="1.1" xmlns="http://www.w3.org/2000/svg" xmlns:xlink="http://www.w3.org/1999/xlink">
    <defs>
        <filter x="-81.1%" y="-81.1%" width="262.2%" height="262.2%" filterUnits="objectBoundingBox" id="filter-1">
<!--            <feGaussianBlur stdDeviation="10" in="SourceGraphic"></feGaussianBlur>-->
        </filter>
        <linearGradient x1="50%" y1="11.4932498%" x2="50%" y2="98.7410539%" id="linearGradient-2">
            <stop stop-color="#FDEB5C" offset="0%"></stop>
            <stop stop-color="#31B9B2" offset="100%"></stop>
        </linearGradient>
    </defs>
    <g id="NY-Zodiac" stroke="none" stroke-width="1" fill="none" fill-rule="evenodd">
        <g id="一栏备份" transform="translate(-394.000000, -585.000000)">
            <g id="编组-11" transform="translate(424.000000, 615.000000)">
                <circle id="椭圆形" fill="#FFE347" opacity="0.126803444" filter="url(#filter-1)" cx="18.5" cy="18.5" r="18.5"></circle>
                <path d="M14.3520687,30.5390191 C14.3520687,31.1842728 14.7303691,31.7686261 15.3172875,32.0296276 L17.0280515,32.790882 C17.6572372,33.0708799 18.3749598,33.0696504 19.0031931,32.7874987 L20.6865579,32.031561 C21.2706703,31.7692253 21.6468437,31.1861421 21.6469699,30.5428858 L21.6469699,30.1567002 L14.3520687,30.1567002 L14.3520687,30.5390191 L14.3520687,30.5390191 Z M18,8.30555807 C12.6278455,8.30555807 8.272824,12.6845832 8.272824,18.0863476 C8.272824,22.1908378 10.7882575,25.7022746 14.3520687,27.153733 L14.3520687,28.269756 L17.0674678,28.269756 C17.0439141,23.4885952 15.7244292,19.66589 15.0058025,19.4029551 C14.7164292,19.4073051 14.3265922,19.838441 13.9992446,20.5590951 C13.8610856,20.8630971 13.5721272,21.0698933 13.2412173,21.1015856 C12.9103075,21.1332779 12.5877192,20.9850515 12.3949684,20.7127417 C12.2022176,20.440432 12.1685877,20.0854093 12.3067468,19.7814073 C13.1503519,17.92588 14.2597768,17.5363111 15.0413734,17.5363111 C16.4416137,17.5363111 17.3904893,19.1980206 18,21.3213161 C18.6095107,19.1980206 19.5588669,17.5363111 20.9586266,17.5363111 C21.7402231,17.5363111 22.8496481,17.92588 23.6932532,19.7814073 C23.8945311,20.2489429 23.6868483,20.7924743 23.226017,21.0042222 C22.7651858,21.2159701 22.2205667,21.0181147 22.0007554,20.5590951 C21.6734077,19.838441 21.2835708,19.4073051 20.9586266,19.4073051 C20.2750901,19.66589 18.9560858,23.4881119 18.9325322,28.269756 L21.6479313,28.269756 L21.6479313,27.153733 C25.2122231,25.7022746 27.727176,22.1908378 27.727176,18.0863476 C27.727176,12.6845832 23.3721545,8.30555807 18,8.30555807 L18,8.30555807 Z M6.49860942,17.1419088 L4.93012872,17.1419088 C4.4164328,17.1419088 4,17.5606369 4,18.0771642 C4,18.5936914 4.4164328,19.0124196 4.93012872,19.0124196 L6.49812873,19.0124196 C7.01182465,19.012553 7.42836507,18.5939331 7.42849784,18.0774059 C7.42863055,17.5608786 7.01230534,17.1420423 6.49860942,17.1419088 L6.49860942,17.1419088 Z M31.0698712,17.1419088 L29.3653562,17.1419088 C28.8516603,17.1419088 28.4352275,17.5606369 28.4352275,18.0771642 C28.4352275,18.5936914 28.8516603,19.0124196 29.3653562,19.0124196 L31.0698712,19.0124196 C31.5835672,19.0124196 32,18.5936915 32,18.0771642 C32,17.5606369 31.5835672,17.1419088 31.0698712,17.1419088 L31.0698712,17.1419088 Z M18,7.41476961 C18.5136959,7.41476961 18.9301287,6.99604152 18.9301287,6.47951424 L18.9301287,4.93525537 C18.9301287,4.41872809 18.5136959,4 18,4 C17.4863041,4 17.0698712,4.41872809 17.0698712,4.93525537 L17.0698712,6.47951424 C17.0698712,6.99620055 17.4861459,7.41476961 18,7.41476961 Z M9.2736137,25.528757 L8.10025748,26.7080971 C7.864643,26.9442018 7.7723595,27.2888515 7.85823117,27.6119889 C7.94410283,27.9351264 8.19505599,28.1875549 8.51639074,28.274018 C8.83772549,28.360481 9.18051971,28.2678148 9.41541628,28.030988 L10.5887725,26.8516479 C10.8243897,26.6155438 10.9166753,26.2708927 10.830804,25.9477535 C10.7449327,25.6246144 10.4939782,25.3721845 10.1726417,25.2857218 C9.85130529,25.1992591 9.50850971,25.2919274 9.2736137,25.528757 L9.2736137,25.528757 Z" id="形状" fill="url(#linearGradient-2)" fill-rule="nonzero"></path>
            </g>
        </g>
    </g>
</svg>
