<?xml version="1.0" encoding="UTF-8"?>
<svg width="20px" height="20px" viewBox="1 1 18 18" version="1.1" xmlns="http://www.w3.org/2000/svg" xmlns:xlink="http://www.w3.org/1999/xlink">
    <g id="NY-Zodiac" stroke="none" stroke-width="1" fill="none" fill-rule="evenodd">
        <g transform="translate(-184.000000, -76.000000)">
            <g transform="translate(184.000000, 76.000000)">
                <rect x="0" y="0" width="20" height="20"></rect>
                <g transform="translate(1.000000, 3.000000)" fill="#FFFFFF" fill-rule="nonzero">
                    <path d="M8.42247648,0.119794119 L0.803216305,3.43173186 C0.3076188,3.64718523 -0.00706874729,4.11795601 0.000120632505,4.63297169 C0.00755963744,5.14798738 0.335503348,5.61062548 0.837041327,5.81345983 L8.4563015,8.89471859 C8.80345816,9.0350938 9.1963779,9.0350938 9.54353455,8.89471859 L17.1631399,5.81248238 C17.6646457,5.6095821 17.9925199,5.146903 17.9998818,4.63188832 C18.006999,4.11687364 17.6922457,3.6461449 17.1966197,3.43075441 L9.57735957,0.119468314 C9.21089041,-0.0398227715 8.78894564,-0.0398227715 8.42247648,0.119468314 L8.42247648,0.119794119 Z M1.38065785,4.61542786 L8.99991803,1.30349012 L16.6191782,4.61477623 L8.99991803,7.69701242 L1.38065785,4.61510204 L1.38065785,4.61542786 Z" transform="translate(9.000000, 4.500000) scale(-1, 1) translate(-9.000000, -4.500000) "></path>
                    <path d="M15.2630807,6.00271651 C15.6487197,6.00261627 15.9692348,6.24674523 15.9981577,6.56260772 L16,6.6080043 L16,11.5050852 C16,11.9391872 15.7172704,12.3401162 15.2586592,12.5558648 L15.1886518,12.5867345 L9.66249417,14.870788 C9.27301645,15.0317804 8.8167418,15.0428618 8.41636368,14.9010524 L8.33751331,14.870788 L2.81135565,12.5867345 C2.33922972,12.3915595 2.03049368,12.0036709 2.00221829,11.5701537 L2,11.5050852 L2,6.6080043 C1.99822843,6.2815031 2.31204059,6.0126843 2.70926984,6.00043369 C3.10649909,5.98818308 3.4439697,6.23691622 3.4720038,6.56260772 L3.47384609,6.6080043 L3.47384609,11.5050852 L9,13.7894414 L14.5261614,11.5050852 L14.5261614,6.6080043 C14.5261614,6.447472 14.6038009,6.29351468 14.7420001,6.18000119 C14.8801992,6.06648771 15.0676375,6.00271651 15.2630807,6.00271651 Z" transform="translate(9.000000, 10.500000) scale(-1, 1) translate(-9.000000, -10.500000) "></path>
                    <path d="M1,6 L1,8.97096919 C1,9.38782987 0.806500001,9.76909006 0.5,9.95561239 C0.392903953,10.0207798 0.265721053,10.0138138 0.163867127,9.93720186 C0.0620132013,9.86058989 1.0649398e-05,9.72525536 0,9.57952493 L0,6.60855575 L1,6 L1,6 Z" transform="translate(0.500000, 8.000000) scale(-1, 1) translate(-0.500000, -8.000000) "></path>
                </g>
            </g>
        </g>
    </g>
</svg>
