<?xml version="1.0" encoding="UTF-8"?>
<svg width="20px" height="20px" viewBox="0 0 20 20" version="1.1" xmlns="http://www.w3.org/2000/svg" xmlns:xlink="http://www.w3.org/1999/xlink">
    <g id="NY-Zodiac" stroke="none" stroke-width="1" fill="none" fill-rule="evenodd">
        <g id="私域检索-切图" transform="translate(-257.000000, -20.000000)">
            <g id="编组-4" transform="translate(257.000000, 20.000000)">
                <g id="编组" transform="translate(0.000000, 0.000000)" fill="#000000" fill-rule="nonzero">
                    <path d="M10.1683399,19.8385178 C7.95380766,19.8385178 5.86614968,18.9734661 4.2975227,17.3933051 C2.71736169,15.8131441 1.85231004,13.7370202 1.85231004,11.534022 C1.85231004,9.38869388 2.68275962,7.38177405 4.18218248,5.8823512 C4.2975227,5.76701098 4.43593096,5.64013674 4.58587324,5.50172847 L0.721975888,4.53287063 C0.26061501,4.41753041 -0.0508035828,3.9907716 0.00686652695,3.55247876 L0.00686652695,3.5178767 C0.0530026148,3.18339006 0.306751098,2.90657353 0.652771757,2.79123331 L8.86499539,0.173010329 C9.23408409,0.0576701098 9.61470682,-4.80200128e-16 9.99532954,-4.80200128e-16 C10.3874863,-4.80200128e-16 10.768109,0.0576701098 11.1256637,0.173010329 L19.3494214,2.79123331 C19.695442,2.89503951 19.9491905,3.18339006 19.9953266,3.5178767 L19.9953266,3.55247876 C20.0414627,3.97923758 19.7415781,4.40599639 19.2917512,4.55593867 L15.2087075,5.57093261 C15.3586498,5.69780685 15.5547281,5.87081718 15.7046704,6.00922544 C18.4959037,8.81199278 18.9572646,13.148785 16.8004025,16.3437091 L17.2502294,18.0622784 C17.3078995,18.2929588 17.2617634,18.5351733 17.1118211,18.7197176 C16.9618788,18.915796 16.7427324,19.0196022 16.512052,19.0196022 C16.4543818,19.0196022 16.3967117,19.0080682 16.3390416,18.9965342 L14.5051321,18.5813094 C13.2133217,19.4002249 11.7138988,19.8385178 10.1683399,19.8385178 Z M6.26984045,5.90541924 C5.86614968,6.15916773 5.48552696,6.47058632 5.1395063,6.81660698 C3.87076388,8.08534939 3.16718854,9.7693166 3.16718854,11.55709 C3.16718854,13.3679315 3.87076388,15.0634327 5.15104032,16.3437091 C6.43131676,17.6239856 8.13835201,18.3275609 9.93765943,18.3275609 C11.1602658,18.3275609 12.359804,17.9930743 13.397866,17.3702371 C13.5478083,17.2894989 13.6862166,17.2548969 13.8361589,17.2548969 C13.8707609,17.2548969 13.905363,17.2548969 13.9514991,17.2664309 L15.5431941,17.5086453 L15.5777962,17.5086453 C15.6470003,17.5086453 15.7162044,17.4740433 15.7623405,17.4163732 C15.8084766,17.358703 15.8315447,17.2894989 15.8200106,17.2202948 L15.5316601,15.732406 C15.497058,15.5478616 15.5316601,15.3517832 15.6354663,15.1903069 C17.2963654,12.5605499 16.9042087,9.04267322 14.6896765,6.83967502 C14.41286,6.55132447 13.9976352,6.22837186 13.5708764,5.94002131 L10.3759523,6.7243348 C10.260612,6.74740285 10.1337378,6.75893687 10.0183976,6.75893687 C9.90305737,6.75893687 9.77618313,6.74740285 9.66084291,6.7243348 L6.26984045,5.90541924 Z M9.99532954,1.13033415 C9.81078519,1.13033415 9.62624084,1.16493622 9.45323051,1.22260633 L2.48668125,3.44867257 C2.40594309,3.47174061 2.40594309,3.54094474 2.40594309,3.56401279 C2.40594309,3.61014887 2.42901114,3.65628496 2.49821527,3.67935301 L8.46130462,5.22491195 L9.07260779,5.37485423 L9.45323051,5.46712641 C9.62624084,5.5132625 9.81078519,5.53633054 9.99532954,5.53633054 C10.1798739,5.53633054 10.3644182,5.5132625 10.5374286,5.46712641 L10.9295853,5.37485423 L11.5408885,5.22491195 L17.4693758,3.67935301 C17.5501139,3.65628496 17.5616479,3.58708083 17.5616479,3.56401279 C17.5616479,3.5178767 17.5385799,3.46020659 17.4809098,3.43713854 L10.5374286,1.21107231 C10.3644182,1.1534022 10.1798739,1.13033415 9.99532954,1.13033415 L9.99532954,1.13033415 Z M10.6643028,16.8742741 C10.1798739,16.8742741 9.78771715,16.4821174 9.78771715,15.9976885 C9.78771715,15.5132595 10.1798739,15.1211028 10.6643028,15.1211028 C11.1602658,15.1211028 11.5408885,15.5132595 11.5408885,15.9976885 C11.5408885,16.4821174 11.1487317,16.8742741 10.6643028,16.8742741 Z M10.6873709,14.705878 C10.4682244,14.705878 10.2721461,14.6251398 10.1222038,14.4636635 C9.9722615,14.3137213 9.90305737,14.1061089 9.90305737,13.8984965 C9.92612541,13.5409418 9.96072748,13.4256016 9.9722615,13.3563974 L9.9722615,13.3333294 C10.0414656,13.125717 10.1568059,12.8604345 10.5028265,12.5605499 C10.9411193,12.1799272 11.3217421,11.8108385 11.5524225,11.545556 C11.7485009,11.3264096 11.8407731,11.049593 11.8407731,10.7381744 C11.8407731,10.3690857 11.7138988,10.0922692 11.4601503,9.89619084 C11.1948678,9.70011247 10.8027111,9.59630627 10.3067481,9.59630627 C9.84538726,9.59630627 9.47629856,9.68857845 9.19948203,9.86158878 C8.91113148,10.0461331 8.79579126,10.3806198 8.74965517,10.6228342 C8.68045104,10.9573209 8.40363451,11.1880013 8.05761385,11.1880013 L7.91920559,11.1880013 C7.70005917,11.1880013 7.49244678,11.0841951 7.35403852,10.9111848 C7.21563025,10.7381744 7.18102819,10.507494 7.2386983,10.2998816 C7.36557254,9.80391867 7.65392309,9.33102377 8.01147777,9.04267322 C8.48437267,8.65051647 9.26868616,8.16608755 10.3528842,8.16608755 C11.298674,8.16608755 12.1752597,8.44290407 12.7404268,8.927333 C13.3286619,9.45789801 13.4094,10.0922692 13.4094,10.7035724 C13.4094,11.2456714 13.2363897,11.6954983 12.878835,12.099189 L12.844233,12.1337911 C12.5328144,12.4913458 12.2444638,12.8373664 11.7485009,13.2064551 C11.5293545,13.3563974 11.4716844,13.4025335 11.4601503,13.9561666 C11.4486163,14.3713914 11.1025957,14.705878 10.6873709,14.705878 L10.6873709,14.705878 Z" id="形状"></path>
                </g>
                <rect id="矩形备份-6" x="0" y="0" width="20" height="20"></rect>
            </g>
        </g>
    </g>
</svg>
