<svg width="24px" height="24px" viewBox="1 1 16 16" version="1.1" xmlns="http://www.w3.org/2000/svg" xmlns:xlink="http://www.w3.org/1999/xlink">
                        <path d="M1.40647215,10.125 C1.2508519,10.125 1.125,10.3887649 1.125,10.7130671 L1.125,11.7869329 C1.125,12.1121397 1.2508519,12.375 1.40647215,12.375 C1.56165949,12.375 1.6875,12.1121397 1.6875,11.7869329 L1.6875,10.7130671 C1.6875,10.3887887 1.56165949,10.125 1.40647215,10.125 Z"></path>
                        <path d="M8.67506032,0.0505189499 C8.80209606,-0.0143373322 8.94893085,-0.017275872 9.07726585,0.0447669146 L9.07726585,0.0447669146 L17.7162203,4.1802302 C17.888691,4.26244679 18,4.44782489 18,4.65129272 C18,4.85467718 17.8879153,5.03865895 17.7147077,5.12087554 L17.7147077,5.12087554 L14.8722174,6.47006127 L14.8722174,11.9163842 L14.8722174,11.9163842 L14.8707436,11.9588367 C14.8716938,11.9745923 14.8722174,11.9923903 14.8722174,12.012189 C14.8729737,12.5360618 14.6522367,13.0136475 14.3220136,13.3970748 C13.9894052,13.7831072 13.5430252,14.0995734 13.0134154,14.3617495 C11.9541766,14.8821003 10.5488327,15.1860828 8.99962104,15.1875 C6.67462059,15.1730157 4.67883489,14.5318513 3.67722851,13.3970748 C3.34591944,13.0136475 3.12553152,12.536041 3.12685016,12.0121681 C3.12704408,11.9944952 3.12758705,11.9784062 3.12834333,11.9640261 C3.12686955,11.9482497 3.12611327,11.932369 3.12611327,11.9163842 L3.12611327,6.59912777 L2.21167308,6.18937862 L2.21167308,9.47668763 C2.21167308,9.76066311 1.99747115,9.9908904 1.73331591,9.9908904 C1.46842378,9.99089041 1.25420246,9.76066311 1.25420246,9.47668763 L1.25420246,9.47668763 L1.25420246,5.78156765 L1.25420246,5.78156765 L1.25606407,5.7612688 L0.293920027,5.33007456 C0.119587655,5.25144257 0.00471057261,5.07181651 0.000211672621,4.86845289 C-0.00539256053,4.66494338 0.10068064,4.47887754 0.271483703,4.39080471 L0.271483703,4.39080471 Z M13.9143783,6.92503475 L9.21682871,9.15469869 C9.18649651,9.16899077 9.1548675,9.17986521 9.12244877,9.18714768 C9.11319887,9.18935679 9.1036581,9.18906502 9.09438882,9.19056555 C9.07144831,9.1942752 9.04852719,9.19808905 9.02543154,9.19819325 L9.02543154,9.19819325 C9.00526406,9.1985267 8.98757873,9.19498378 8.96979644,9.19275383 C8.95661001,9.19127414 8.94342358,9.1913575 8.93043106,9.18864821 C8.91526667,9.1854179 8.90058707,9.17899896 8.88571355,9.1742056 C8.86998679,9.16916215 8.85400794,9.16582763 8.83876598,9.15899188 L8.83876598,9.15899188 L4.08414625,7.02848803 L4.08414625,9.67940519 C4.30556194,10.0297583 4.71639683,10.3769854 5.30559758,10.6661085 C6.231828,11.1234995 7.54624366,11.4176452 8.99965982,11.4169367 C9.28574584,11.4170233 9.57173725,11.4057547 9.85704931,11.3831539 C10.0156743,11.370191 10.1533756,11.4974652 10.1653597,11.6679421 C10.176956,11.837648 10.0585302,11.9858463 9.90044818,11.9987884 C9.60672044,12.0225468 9.30626373,12.0347803 8.99964043,12.0347803 C7.47383465,12.0340092 6.09131494,11.7319023 5.06537184,11.227057 C4.69140078,11.0416997 4.35764834,10.8261443 4.08414625,10.581266 L4.08414625,10.581266 L4.08414625,11.8103259 C4.0933092,11.8577386 4.0962077,11.9063029 4.09275622,11.9545852 C4.09013832,11.9909731 4.08676415,12.0163988 4.08453409,12.0309873 C4.08976988,12.2357681 4.17299953,12.452699 4.38122878,12.6987861 C4.59484896,12.9495206 4.93872393,13.2060489 5.38545306,13.4258141 C6.27838773,13.8683666 7.57034768,14.1592612 8.99964043,14.157844 C11.1429978,14.1723491 12.9812444,13.4740812 13.6172958,12.6987861 C13.8261068,12.4529074 13.9093559,12.236164 13.9147856,12.0314458 L13.9147856,12.0314458 L13.90959,11.9914486 L13.90959,11.9914486 L13.9063695,11.9602747 C13.9023539,11.9112592 13.9050523,11.8618756 13.9143783,11.8137021 L13.9143783,11.8137021 L13.9143783,10.5817036 C13.4528533,10.9948081 12.8236472,11.3279468 12.0757633,11.5746383 C12.0486247,11.583627 12.0203887,11.5882069 11.9919906,11.5882264 C11.8692405,11.5882264 11.7549645,11.5029046 11.7167627,11.3700868 C11.6705714,11.2065497 11.7555075,11.0336135 11.9078108,10.9839501 C12.6048494,10.7548691 13.1739408,10.4443425 13.5514606,10.1028258 C13.70644,9.962422 13.825622,9.82064266 13.9143783,9.67892585 L13.9143783,9.67892585 L13.9143783,6.92503475 Z"></path>
                        <path d="M14.2007954,5.66363009 L14.1998839,5.66392186 L9.01777178,8.12364637 L3.78987554,5.78065066 C3.78977858,5.78065066 3.78960405,5.78052561 3.7894877,5.78052561 L1.64898093,4.82118616 L8.89003792,1.08134203 L16.3395375,4.64837502 L14.2008148,5.66363009 L14.2007954,5.66363009 Z"></path>
                    </g>
                    <path d="M3.65520529,5.84131855 L13.2176847,6.92503475 C13.2176847,9.14382697 13.2176847,10.7247961 13.2176847,11.6679421 C13.2176847,12.6110882 12.7676086,13.4411295 11.8674563,14.1580661 C10.4506574,14.3770801 9.48042711,14.3770801 8.95676547,14.1580661 C8.17127302,13.829545 7.23864755,13.8824466 6.70753032,11.6679421 C6.35345217,10.1916059 5.33601049,8.249398 3.65520529,5.84131855 Z" transform="translate(8.436445, 10.081823) scale(-1, 1) translate(-8.436445, -10.081823) "></path>
                </g>
            </g>
        </g>
    </g>
</svg>