<?xml version="1.0" encoding="UTF-8"?>
<svg width="24px" height="24px" viewBox="0 0 24 24" version="1.1" xmlns="http://www.w3.org/2000/svg" xmlns:xlink="http://www.w3.org/1999/xlink">
    <g id="NY-Zodiac" stroke="none" stroke-width="1" fill="none" fill-rule="evenodd">
        <g id="切图" transform="translate(-453.000000, -93.000000)">
            <g id="编组-23" transform="translate(453.000000, 93.000000)">
                <rect id="矩形备份-20" x="0" y="0" width="24" height="24"></rect>
                <g id="编组" transform="translate(3.000000, 2.000000)" fill="#4B4B4B" fill-rule="nonzero">
                    <path d="M9.79411765,18.865875 L9.79411765,20.2125 C9.79411765,20.6474242 9.43857907,21 9,21 C8.56142093,21 8.20588235,20.6474242 8.20588235,20.2125 L8.20588235,18.865875 C3.60714706,18.466875 0,14.638575 0,9.97500001 L0,9.44999999 C0,9.01507575 0.355538581,8.66249999 0.794117646,8.66249999 C1.23269671,8.66249999 1.58823529,9.01507575 1.58823529,9.44999999 L1.58823529,9.97500001 C1.58823529,14.0343 4.90658822,17.325 9,17.325 C13.0934118,17.325 16.4117647,14.0343 16.4117647,9.97500001 L16.4117647,9.44999999 C16.4117647,9.01507575 16.7673033,8.66249999 17.2058824,8.66249999 C17.6444614,8.66249999 18,9.01507575 18,9.44999999 L18,9.97500001 C18,14.6388375 14.3928529,18.466875 9.79411765,18.865875 L9.79411765,18.865875 Z M3.70588237,5.247375 C3.70588237,2.34937501 6.07579411,0 9,0 C11.9228823,0 14.2941176,2.35121249 14.2941176,5.247375 L14.2941176,9.97762499 C14.2941176,12.875625 11.9242059,15.225 9,15.225 C6.07711766,15.225 3.70588237,12.8737875 3.70588237,9.97762499 L3.70588237,5.247375 Z M5.29411766,5.247375 L5.29411766,9.97762499 C5.29411766,12.004125 6.95408823,13.65 9,13.65 C11.0472353,13.65 12.7058823,12.0059625 12.7058823,9.97762499 L12.7058823,5.247375 C12.7058823,3.220875 11.0459118,1.575 9,1.575 C6.95276471,1.575 5.29411766,3.21903749 5.29411766,5.247375 Z" id="形状"></path>
                </g>
            </g>
        </g>
    </g>
</svg>