<?xml version="1.0" standalone="no"?><!DOCTYPE svg PUBLIC "-//W3C//DTD SVG 1.1//EN" "http://www.w3.org/Graphics/SVG/1.1/DTD/svg11.dtd"><svg t="1743155920105" class="icon" viewBox="0 0 1024 1024" version="1.1" xmlns="http://www.w3.org/2000/svg" p-id="19896" xmlns:xlink="http://www.w3.org/1999/xlink" width="200" height="200"><path d="M475.2 580.8c-8 0-16-3.2-22.4-9.6-51.2-51.2-51.2-136 0-187.2l172.8-172.8c51.2-51.2 136-51.2 187.2 0 51.2 51.2 51.2 136 0 187.2l-120 120c-12.8 12.8-32 12.8-44.8 0s-12.8-32 0-44.8l120-120c27.2-27.2 27.2-70.4 0-97.6-27.2-27.2-70.4-27.2-97.6 0L497.6 428.8c-27.2 27.2-27.2 70.4 0 97.6 12.8 12.8 12.8 32 0 44.8-6.4 6.4-14.4 9.6-22.4 9.6z m-76.8 232L571.2 640c51.2-51.2 51.2-136 0-187.2-12.8-12.8-32-12.8-44.8 0-12.8 12.8-12.8 32 0 44.8 27.2 27.2 27.2 70.4 0 97.6L353.6 768c-27.2 27.2-70.4 27.2-97.6 0-27.2-27.2-27.2-70.4 0-97.6l120-120c12.8-12.8 12.8-32 0-44.8s-32-12.8-44.8 0l-120 120c-51.2 51.2-51.2 136 0 187.2 25.6 25.6 59.2 38.4 94.4 38.4 33.6 0 67.2-12.8 92.8-38.4z" fill="#8a8a8a" p-id="19897"></path></svg>