<?xml version="1.0" encoding="UTF-8"?>
<svg width="24px" height="24px" viewBox="0 0 24 24" version="1.1" xmlns="http://www.w3.org/2000/svg" xmlns:xlink="http://www.w3.org/1999/xlink">
    <g id="NY-Zodiac" stroke="none" stroke-width="1" fill="none" fill-rule="evenodd">
        <g id="切图" transform="translate(-377.000000, -93.000000)">
            <g id="编组-21" transform="translate(377.000000, 93.000000)">
                <rect id="矩形备份-12" x="0" y="0" width="24" height="24"></rect>
                <g id="编组" transform="translate(11.975000, 12.500000) scale(-1, -1) rotate(90.000000) translate(-11.975000, -12.500000) translate(2.000000, 2.000000)" fill="#4B4B4B" fill-rule="nonzero">
                    <path d="M16.7326603,21 C14.9627079,21 13.5144893,19.6499308 13.5144893,18.0001154 C13.5144893,16.6104571 14.5461995,15.4437904 15.9279097,15.106879 L15.9279097,0.750577106 C15.9279097,0.300554018 16.2496437,0 16.7326603,0 C17.2148456,0 17.5365796,0.300554018 17.5365796,0.750577106 L17.5365796,15.106879 C18.9182898,15.4437904 19.95,16.6104571 19.95,18.0001154 C19.95,19.6499308 18.5026128,21 16.7326603,21 L16.7326603,21 Z M16.7326603,16.4997692 C15.7674585,16.4997692 15.1239905,17.1000692 15.1239905,18.0001154 C15.1239905,18.9001616 15.7674584,19.4996537 16.7326603,19.4996537 C17.6978623,19.4996537 18.3413302,18.9001616 18.3413302,18.0001154 C18.3413302,17.1000693 17.6978623,16.4997692 16.7326603,16.4997692 Z M11.1010689,12.6426593 L11.1010689,20.2502308 C11.1010689,20.7002539 10.7793349,21 10.2963183,21 C9.81413303,21 9.49239907,20.7002539 9.49239904,20.2502308 L9.49239904,12.6426593 C8.11068883,12.3065559 7.07897863,11.1398892 7.07897863,9.75023084 C7.07897863,8.35410897 8.11983372,7.18178671 9.5115202,6.85214683 C9.50653207,6.81659743 9.49239907,6.78751156 9.49239904,6.75034626 L9.49239904,0.750577106 C9.49239904,0.300554018 9.81413301,0 10.2963183,0 C10.7793349,0 11.1010689,0.300554018 11.1010689,0.750577106 L11.1010689,6.75034626 C11.1010689,6.78751154 11.0861045,6.81659741 11.0819477,6.85214683 C12.4736342,7.18259466 13.5144893,8.35410897 13.5144893,9.75023084 C13.5144893,11.1398892 12.4827791,12.3057479 11.1010689,12.6426593 L11.1010689,12.6426593 Z M10.2963183,8.25069253 C9.33111641,8.25069253 8.68764846,8.85018469 8.68764846,9.75023084 C8.68764846,10.650277 9.33111639,11.2497692 10.2963183,11.2497692 C11.2615202,11.2497692 11.9049881,10.650277 11.9049881,9.75023084 C11.9049881,8.85018469 11.2615202,8.25069253 10.2963183,8.25069253 Z M4.02209026,5.89312096 L4.02209026,20.2502308 C4.02209026,20.7002539 3.69952493,21 3.21733968,21 C2.73432304,21 2.41258908,20.7002539 2.41258908,20.2502308 L2.41258908,5.89312096 C1.03171022,5.5562096 0,4.38954294 0,3.00069253 C0,1.35006926 1.44738717,0 3.21733968,0 C4.98646083,0 6.4355107,1.35006924 6.4355107,3.00069253 C6.4355107,4.38954294 5.40296914,5.5562096 4.02209026,5.89312096 Z M3.21733968,1.50034626 C2.25130643,1.50034626 1.60783848,2.09983842 1.60783848,3.00069253 C1.60783848,3.9007387 2.2513064,4.50023084 3.21733968,4.50023084 C4.18254157,4.50023084 4.8260095,3.90073868 4.8260095,3.00069253 C4.8260095,2.09983842 4.18254157,1.50034626 3.21733968,1.50034626 Z" id="形状"></path>
                </g>
            </g>
        </g>
    </g>
</svg>