<svg width="16" height="16" viewBox="0 0 16 16" fill="none" xmlns="http://www.w3.org/2000/svg">
<g clip-path="url(#clip0_314_12)">
<mask id="mask0_314_12" style="mask-type:luminance" maskUnits="userSpaceOnUse" x="0" y="0" width="16" height="16">
<path d="M0 0H16V16H0V0Z" fill="white"/>
</mask>
<g mask="url(#mask0_314_12)">
<path fill-rule="evenodd" clip-rule="evenodd" d="M13.5 4.75C13.5 4.55109 13.421 4.36032 13.2803 4.21967C13.1397 4.07902 12.9489 4 12.75 4C12.5511 4 12.3603 4.07902 12.2197 4.21967C12.079 4.36032 12 4.55109 12 4.75V11.25C12 11.664 12.336 12 12.75 12H15.25C15.4489 12 15.6397 11.921 15.7803 11.7803C15.921 11.6397 16 11.4489 16 11.25C16 11.0511 15.921 10.8603 15.7803 10.7197C15.6397 10.579 15.4489 10.5 15.25 10.5H13.5V4.75ZM11 8C11 9.32 10.743 10.314 10.291 10.98L11.281 11.97C11.3526 12.0392 11.4097 12.122 11.4489 12.2135C11.4882 12.305 11.5089 12.4035 11.5097 12.5031C11.5105 12.6026 11.4915 12.7014 11.4537 12.7935C11.416 12.8857 11.3602 12.9694 11.2898 13.0398C11.2193 13.1102 11.1356 13.1658 11.0434 13.2035C10.9512 13.2412 10.8524 13.2601 10.7528 13.2592C10.6532 13.2583 10.5548 13.2375 10.4634 13.1982C10.3719 13.1588 10.2891 13.1017 10.22 13.03L9.08799 11.898C8.86465 11.966 8.62699 12 8.37499 12C6.79999 12 5.74999 10.667 5.74999 8C5.74999 5.333 6.79999 4 8.37499 4C9.94999 4 11 5.333 11 8ZM9.04299 10.15C9.26499 9.828 9.49999 9.17 9.49999 8.001C9.49999 6.833 9.26499 6.175 9.04299 5.852C8.86799 5.598 8.67699 5.502 8.37499 5.502C8.07299 5.502 7.88199 5.598 7.70699 5.852C7.48499 6.175 7.24999 6.833 7.24999 8.002C7.24999 9.169 7.48499 9.828 7.70699 10.15C7.88199 10.404 8.07299 10.501 8.37499 10.501C8.67699 10.501 8.86799 10.404 9.04299 10.15ZM2.56199 4.002C1.87299 4.002 1.27699 4.251 0.859986 4.715C0.452986 5.17 0.276986 5.76 0.276986 6.352C0.276986 7.084 0.602986 7.632 1.03599 8.01C1.44599 8.368 1.94399 8.571 2.34099 8.694C2.73899 8.816 3.02499 8.911 3.23099 9.066C3.37799 9.179 3.50099 9.332 3.50099 9.691C3.50099 9.981 3.39199 10.159 3.24799 10.28C3.0515 10.4304 2.80933 10.5088 2.56199 10.502C2.35999 10.502 2.12399 10.409 1.90399 10.209C1.69912 10.0273 1.55205 9.78946 1.48099 9.525C1.43243 9.33575 1.31194 9.17293 1.14515 9.07117C0.978367 8.9694 0.778456 8.93674 0.587958 8.98013C0.397459 9.02352 0.231412 9.13954 0.12515 9.30349C0.0188867 9.46744 -0.0192029 9.66639 0.0189856 9.858C0.145986 10.415 0.471986 10.937 0.896986 11.321C1.32299 11.707 1.90299 12.002 2.56199 12.002C3.13999 12.002 3.73899 11.822 4.20899 11.432C4.69399 11.027 4.99999 10.426 4.99999 9.692C4.99999 8.849 4.64799 8.259 4.13599 7.871C3.70199 7.542 3.17399 7.381 2.82999 7.275L2.78299 7.26C2.47299 7.165 2.20399 7.039 2.02299 6.88C1.94374 6.81719 1.88023 6.73676 1.83753 6.6451C1.79482 6.55344 1.77409 6.45308 1.77699 6.352C1.77699 6.048 1.86699 5.84 1.97699 5.717C2.07599 5.607 2.24699 5.502 2.56199 5.502C2.88399 5.502 3.05999 5.601 3.17399 5.708C3.30399 5.831 3.40699 6.021 3.47399 6.268C3.52906 6.45576 3.65533 6.61456 3.82585 6.71052C3.99638 6.80648 4.19765 6.832 4.38672 6.78163C4.5758 6.73126 4.73771 6.609 4.83789 6.44092C4.93808 6.27285 4.96862 6.07227 4.92299 5.882C4.80999 5.462 4.59799 4.99 4.20399 4.619C3.79499 4.232 3.24299 4.002 2.56199 4.002Z" fill="#647EA6"/>
</g>
</g>
<defs>
<clipPath id="clip0_314_12">
<rect width="16" height="16" fill="white"/>
</clipPath>
</defs>
</svg>
