<svg width="24px" height="24px" viewBox="0 0 16 16" version="1.1" xmlns="http://www.w3.org/2000/svg" xmlns:xlink="http://www.w3.org/1999/xlink">
                    <path d="M12.9134078,13.5 L3.58659217,13.5 C3.26396648,13.5 3,13.2383721 3,12.9186046 C3,12.5988372 3.26396648,12.3372093 3.58659217,12.3372093 L12.9134078,12.3372093 C13.2360335,12.3372093 13.5,12.5988372 13.5,12.9186046 C13.5,13.2383721 13.2360335,13.5 12.9134078,13.5 Z M7.66340783,7.74418605 L7.66340783,6 L7.19413408,6 C7.25279329,6.75581395 7.45810056,7.36627906 7.66340783,7.74418605 Z"></path>
                    <path d="M14.4285714,0 L1.57142858,0 C0.714285719,0 0,0.704 0,1.61333332 L0,9.38666666 C0,10.2666667 0.714285719,11 1.57142858,11 L14.4285714,11 C15.2857143,11 16,10.2666667 16,9.38666666 L16,1.61333332 C16,0.704 15.2857143,0 14.4285714,0 Z M8.00000001,9.592 C5.80000001,9.592 4.00000001,7.744 4.00000001,5.48533332 C4.00000001,3.22666664 5.80000001,1.37866666 8.00000001,1.37866666 C10.2,1.37866666 12,3.22666666 12,5.48533332 C12,7.74399998 10.2,9.592 8.00000001,9.592 Z"></path>
                    <path d="M7.68877551,5.1875 L7.68877551,3.5 C7.49234694,3.89374999 7.29591838,4.45625 7.23979592,5.1875 L7.68877551,5.1875 Z M5.5,5.1875 L6.11734693,5.1875 C6.14540816,4.596875 6.25765305,4.090625 6.42602041,3.61250001 C5.9489796,4.00625 5.64030612,4.56875001 5.5,5.1875 Z M8.81122449,8 C9.00765306,7.60625001 9.20408162,7.04375 9.26020408,6.3125 L8.81122449,6.3125 L8.81122449,8 Z M8.81122449,5.1875 L9.26020408,5.1875 C9.20408164,4.45625 9.00765306,3.86562501 8.81122449,3.5 L8.81122449,5.1875 Z M10.0739796,3.61250001 C10.2423469,4.06250001 10.3265306,4.596875 10.3826531,5.1875 L11,5.1875 C10.8596939,4.56874999 10.5510204,4.00625 10.0739796,3.61250001 L10.0739796,3.61250001 Z M5.5,6.3125 C5.64030612,6.93125001 5.9489796,7.49375 6.42602041,7.88749999 C6.25765306,7.43749999 6.17346939,6.903125 6.11734693,6.3125 L5.5,6.3125 L5.5,6.3125 Z M10.0739796,7.88749999 C10.5510204,7.49375 10.8596939,6.93124999 11,6.3125 L10.3826531,6.3125 C10.3265306,6.903125 10.242347,7.409375 10.0739796,7.88749999 L10.0739796,7.88749999 Z"></path>
</svg>